<svg id="ece38c8f-4d3b-4b22-a7ee-05449e43c2c5" xmlns="http://www.w3.org/2000/svg" width="131.356" height="31.754" viewBox="0 0 131.356 31.754">
  <path id="Path_229" data-name="Path 229" d="M96.62,33.152H93V30.92h9.876v2.232h-3.62V39.3H96.62Z" transform="translate(-52.143 -17.336)" fill="#222220"/>
  <path id="Path_230" data-name="Path 230" d="M126.791,30.92V39.3h-2.548V34.417L119.849,39.3H117.6V30.955h2.548v4.833l4.393-4.868Z" transform="translate(-65.936 -17.336)" fill="#222220"/>
  <path id="Path_231" data-name="Path 231" d="M145.258,39.347H142.71V31h2.548v3.075h4.094V31H151.9v8.347h-2.548V36.219h-4.094Z" transform="translate(-80.015 -17.381)" fill="#222220"/>
  <path id="Path_232" data-name="Path 232" d="M167.82,39.347V31h2.548v2.2H173a5.43,5.43,0,0,1,1.863.228,2.82,2.82,0,0,1,1.915,2.794,2.886,2.886,0,0,1-2.2,2.9,5.777,5.777,0,0,1-1.6.193Zm2.548-2.021h2.2a2.4,2.4,0,0,0,1-.123,1.05,1.05,0,0,0,.65-.984.936.936,0,0,0-.668-.914,2.97,2.97,0,0,0-.984-.105h-2.2Z" transform="translate(-94.094 -17.381)" fill="#222220"/>
  <path id="Path_233" data-name="Path 233" d="M193.388,39.347H190.84V31h2.548v3.146h.7L197.166,31h3.2l-4.077,3.954,4.235,4.393h-3.392l-3.04-3.163h-.7Z" transform="translate(-107 -17.381)" fill="#222220"/>
  <path id="Path_234" data-name="Path 234" d="M223.428,34.828c0,2.5-2.056,4.428-5.465,4.428s-5.483-1.933-5.483-4.428,2.056-4.428,5.5-4.428S223.428,32.333,223.428,34.828Zm-2.671,0c0-1.371-1.107-2.372-2.794-2.372s-2.794,1-2.794,2.372,1.09,2.39,2.794,2.39S220.757,36.2,220.757,34.828Z" transform="translate(-119.134 -17.045)" fill="#222220"/>
  <path id="Path_235" data-name="Path 235" d="M251.863,34.5c0,2.39-1.915,3.638-5.131,3.708v.843h-2.548V38.2c-3.2-.07-5.114-1.318-5.114-3.708s1.915-3.743,5.114-3.813V29.84h2.548v.843C249.952,30.754,251.863,32.107,251.863,34.5Zm-7.679-2c-1.757.07-2.53.879-2.53,2s.773,1.845,2.53,1.915Zm5.079,2c0-1.125-.756-1.933-2.53-2v3.919c1.779-.07,2.535-.791,2.535-1.915Z" transform="translate(-134.042 -16.731)" fill="#222220"/>
  <path id="Path_236" data-name="Path 236" d="M282.673,34.5c0,2.39-1.915,3.638-5.131,3.708v.843h-2.548V38.2c-3.2-.07-5.114-1.318-5.114-3.708s1.915-3.743,5.114-3.813V29.84h2.548v.843C280.758,30.754,282.673,32.107,282.673,34.5Zm-7.679-2c-1.757.07-2.53.879-2.53,2s.773,1.845,2.53,1.915Zm5.079,2c0-1.125-.756-1.933-2.53-2v3.919c1.775-.07,2.526-.791,2.526-1.915Z" transform="translate(-151.317 -16.731)" fill="#222220"/>
  <path id="Path_237" data-name="Path 237" d="M35.115,14.862l.47-1.476-1.529.048a3.6,3.6,0,0,1-1.986-.694h.206a2.46,2.46,0,0,0,2.2-1.371l.672-1.437a11.835,11.835,0,0,1-1.577-.092,2.447,2.447,0,0,1-1.287-.778,2.434,2.434,0,0,0-1.757-.769,2.539,2.539,0,0,0-.769.123,2.829,2.829,0,0,0,.088-.36,3.273,3.273,0,0,0-.668-2.4l-1.16-1.428L27.3,5.9a1.494,1.494,0,0,1-.505.593,3.1,3.1,0,0,0-.843-1.573,3.791,3.791,0,0,0-2.741-1.142,3.427,3.427,0,0,0-.536.04l-1.388.272a4.775,4.775,0,0,1,.562-1.318l.764-1.191-1.924.18L20.077.439l-1.186.646L17.792,0l-1.1,1.085L15.508.47l-.615,1.287-1.924-.22.764,1.195A4.714,4.714,0,0,1,14.3,4.051l-1.318-.259h-.044a3.515,3.515,0,0,0-.554-.04A3.787,3.787,0,0,0,9.639,4.894a3.106,3.106,0,0,0-.852,1.595,1.472,1.472,0,0,1-.5-.576L7.574,4.231,6.405,5.663a3.3,3.3,0,0,0-.655,2.394,2.961,2.961,0,0,0,.088.36,2.509,2.509,0,0,0-.769-.123,2.434,2.434,0,0,0-1.757.769,2.487,2.487,0,0,1-1.274.778,8.975,8.975,0,0,1-1.6.092l.655,1.459a2.465,2.465,0,0,0,2.2,1.371H3.5a3.6,3.6,0,0,1-1.959.69L0,13.386l.47,1.476a3.075,3.075,0,0,0,2.548,2.157A2.443,2.443,0,0,1,1.7,18.82L.523,19.3l.633,1.1a2.8,2.8,0,0,0,2.386,1.287,3.642,3.642,0,0,0,.747-.079q.094.4.228.8a2.728,2.728,0,0,1,.044,1.8l-.571,1.2,1.278.338a3.6,3.6,0,0,0,.879.11,2.693,2.693,0,0,0,.624-.07,2.847,2.847,0,0,0,.439-.136,3.888,3.888,0,0,0,.6.808,4.611,4.611,0,0,0,3.449,1.265h1.05l-2.166.9,1.643.813a21.749,21.749,0,0,0,2.03.879l-.2.571.567.259a8.9,8.9,0,0,0,2.948.611h1.349a8.883,8.883,0,0,0,2.935-.615l.549-.255-.193-.571a21.967,21.967,0,0,0,2.052-.909l1.612-.782-2.161-.879h1.054a4.656,4.656,0,0,0,3.449-1.265,3.853,3.853,0,0,0,.6-.808,2.97,2.97,0,0,0,.439.136,2.724,2.724,0,0,0,.624.07,3.651,3.651,0,0,0,.879-.11l1.283-.338-.558-1.177a2.706,2.706,0,0,1,.022-1.845,7.719,7.719,0,0,0,.228-.813,3.681,3.681,0,0,0,.751.079,2.785,2.785,0,0,0,2.39-1.318l.624-1.09L33.9,18.79a2.434,2.434,0,0,1-1.318-1.8,3.075,3.075,0,0,0,2.548-2.161M14.4,4.591Z" fill="#fff"/>
  <path id="Path_238" data-name="Path 238" d="M37.506,10.3c-1.226,0-2.148.4-2.346.879l2.346.927,2.346-.927c-.2-.474-1.12-.879-2.346-.879" transform="translate(-19.714 -5.775)" fill="#fff"/>
  <path id="Path_239" data-name="Path 239" d="M36.882,65.75h-.048a9.608,9.608,0,0,1-2.262-.29L34,67.064a10.338,10.338,0,0,0,5.755,0l-.615-1.6a9.634,9.634,0,0,1-2.262.29" transform="translate(-19.063 -36.702)" fill="#fff"/>
  <path id="Path_240" data-name="Path 240" d="M48.223,62.49a13.044,13.044,0,0,1-2,.8l.483,1.318a12.011,12.011,0,0,0,2.223-.83l-1-.334Z" transform="translate(-25.915 -35.037)" fill="#fff"/>
  <path id="Path_241" data-name="Path 241" d="M29.317,62.49l.294.967-1,.334a12.064,12.064,0,0,0,2.223.83l.483-1.318a13.071,13.071,0,0,1-2-.8" transform="translate(-16.041 -35.037)" fill="#fff"/>
  <path id="Path_242" data-name="Path 242" d="M36.928,4.9a5.311,5.311,0,0,1,2.53.611,6.243,6.243,0,0,1,.272-.747l-.264.031-.277.031-.119-.25-.351-.747-.641.334-.25.127-.2-.185-.7-.7-.7.7-.2.2-.25-.127-.646-.334-.347.747-.119.25-.277-.031-.264-.031a6.435,6.435,0,0,1,.272.747A5.32,5.32,0,0,1,36.928,4.9" transform="translate(-19.136 -1.906)" fill="#fff"/>
  <path id="Path_243" data-name="Path 243" d="M69.83,23.59a1.1,1.1,0,0,0,.365.062,1.379,1.379,0,0,0,1.2-.725,3.387,3.387,0,0,1-1.99-1.107,1.318,1.318,0,0,0-.975-.439,1.546,1.546,0,0,0-.813.246c1.248.663,1.5,1.727,2.2,1.968" transform="translate(-37.913 -11.987)" fill="#fff"/>
  <path id="Path_244" data-name="Path 244" d="M5.994,23.646a1.076,1.076,0,0,0,.36-.062c.712-.242.967-1.318,2.2-1.968a1.546,1.546,0,0,0-.808-.246,1.318,1.318,0,0,0-.975.439A3.387,3.387,0,0,1,4.79,22.921a1.375,1.375,0,0,0,1.2.725" transform="translate(-2.686 -11.982)" fill="#fff"/>
  <path id="Path_245" data-name="Path 245" d="M59.756,22.142h.062a2,2,0,0,0,1.757-1.4h-.026a4.731,4.731,0,0,1-3.563-1.792c-.9-1.147-1.643-2.157-3.106-2.552l-.141-.035-.031-.145c-.04-.224.114-.439.439-.659a1.96,1.96,0,0,0,.646-3A2.2,2.2,0,0,1,53.948,13.9h-.088a2.724,2.724,0,0,1-.439-.044l-.237-.044a1.915,1.915,0,0,0-.518-1.92,2.684,2.684,0,0,0-1.951-.813,2.131,2.131,0,0,0-.387.031c.439.584.769,1.551.255,2.144-.439.514-1.533.536-1.533,1.318,0,.325.3.7.843,1.041a9.107,9.107,0,0,1,3.928,4.222A3.6,3.6,0,0,1,52.358,24.5a1.907,1.907,0,0,0,1.041.439h.36a3.075,3.075,0,0,0,1.973-.611,3.431,3.431,0,0,1-.786,1.625,3.361,3.361,0,0,1-2.693,1.164,1.445,1.445,0,0,0,.514,1.081,2.724,2.724,0,0,0,1.173.439s-1.533.312-1.7,2.574a3.466,3.466,0,0,1-.4,1.652h.026c3.554,0,3.462-3.049,3.462-3.049a1.722,1.722,0,0,0,1.239,1.138,1.48,1.48,0,0,0,.369.044,2.566,2.566,0,0,0,.6-.075,3.734,3.734,0,0,1,0-2.636,6.221,6.221,0,0,0,.36-2.2,2,2,0,0,0,1.683.712h0a1.669,1.669,0,0,0,1.419-.751c-2.368-.984-2.135-4.16-2.135-4.16a1.7,1.7,0,0,0,.909.25m-.712,3.317a4.238,4.238,0,0,1-1.722-2.2,9.756,9.756,0,0,1-2.807,5.909,5.351,5.351,0,0,0-1,1.709,3.954,3.954,0,0,1,.778-1.718,10.215,10.215,0,0,0,2.693-5.9A7.029,7.029,0,0,0,56,19.278a3.589,3.589,0,0,1-.914,3.769s2.438-2.926-.971-5.922a28.457,28.457,0,0,0-3.629-2.346c2.776.9,4.134-.092,4.134-.092a3.374,3.374,0,0,1-2.75.646c.193.092.4.193.611.308A8.583,8.583,0,0,1,57.287,21.9v-.022c.545,2.847,1.757,3.576,1.757,3.576" transform="translate(-27.501 -6.212)" fill="#fff"/>
  <path id="Path_246" data-name="Path 246" d="M11.075,28.6a2.724,2.724,0,0,0,1.173-.439,1.445,1.445,0,0,0,.514-1.081,3.374,3.374,0,0,1-2.7-1.164,3.453,3.453,0,0,1-.782-1.625,3.075,3.075,0,0,0,1.973.611h.365a1.915,1.915,0,0,0,1.041-.439A3.6,3.6,0,0,1,11.2,19.8a9.129,9.129,0,0,1,3.928-4.222c.54-.334.861-.712.861-1.037,0-.764-1.085-.791-1.529-1.318a1.806,1.806,0,0,1,.25-2.144,2.122,2.122,0,0,0-.387-.031,2.684,2.684,0,0,0-1.951.813,1.915,1.915,0,0,0-.518,1.92l-.259.057a2.821,2.821,0,0,1-.439.044h-.092A2.243,2.243,0,0,1,9.2,12.535a1.975,1.975,0,0,0,.641,3.009c.347.224.5.439.439.659l-.031.145-.145.026c-1.459.4-2.2,1.406-3.106,2.552a4.727,4.727,0,0,1-3.554,1.8h.009a2,2,0,0,0,1.757,1.4h.062a1.709,1.709,0,0,0,.909-.25s.233,3.176-2.135,4.16a1.669,1.669,0,0,0,1.4.747h0a2,2,0,0,0,1.665-.729,6.238,6.238,0,0,0,.356,2.2,3.747,3.747,0,0,1,0,2.636,2.557,2.557,0,0,0,.593.075,1.459,1.459,0,0,0,.369-.044,1.727,1.727,0,0,0,1.239-1.138s-.092,3.049,3.466,3.049h.026a3.484,3.484,0,0,1-.4-1.652c-.145-2.254-1.678-2.574-1.678-2.574m-.571.554a9.882,9.882,0,0,1-2.812-5.909,4.243,4.243,0,0,1-1.718,2.2s1.213-.729,1.757-3.576v.022a8.58,8.58,0,0,1,4.811-6.265c.215-.119.417-.215.611-.308a3.374,3.374,0,0,1-2.746-.646s1.357,1,4.134.092a28.161,28.161,0,0,0-3.624,2.346c-3.414,3-.971,5.922-.971,5.922a3.585,3.585,0,0,1-.914-3.769,6.981,6.981,0,0,0-.993,3.985,10.215,10.215,0,0,0,2.675,5.9,3.954,3.954,0,0,1,.786,1.731,5.4,5.4,0,0,0-1-1.709" transform="translate(-1.929 -6.195)" fill="#fff"/>
  <path id="Path_247" data-name="Path 247" d="M33.242,23.6c.057.062.114.132.171.2l.04.048.154.215.035.048c.057.088.114.185.171.281a2.588,2.588,0,0,0,2.06,1.415,2.592,2.592,0,0,0,2.06-1.415c.057-.1.114-.193.176-.281l.026-.04.158-.224.035-.044a2.636,2.636,0,0,1,.176-.2l.031-.026a2.126,2.126,0,0,1,.98-.584l-.189-.114h0l-.72-.439L37.863,22l-1.981,1.076h0l-1.99-1.037-.742.439-.725.439h0l-.185.105a2.122,2.122,0,0,1,.98.584l.031.031m1.828-.088h1.674v.576a.707.707,0,0,0-.58-.193v.83a1.256,1.256,0,0,0,.158.584h-.839a1.234,1.234,0,0,0,.158-.619V23.9a.707.707,0,0,0-.58.193Z" transform="translate(-18.076 -12.335)" fill="#fff"/>
  <path id="Path_248" data-name="Path 248" d="M37.374,17.69V14.325L35.23,13.6l.567,3.251Zm-.439-2.539v.54l-.105-.048a1.318,1.318,0,0,1-.439-.25.975.975,0,0,1-.439-.655Z" transform="translate(-19.753 -7.625)" fill="#fff"/>
  <path id="Path_249" data-name="Path 249" d="M42.467,16.84l.562-3.26L40.89,14.3V17.67Zm-1.116-1.709.975-.409a.975.975,0,0,1-.439.655,1.318,1.318,0,0,1-.439.25l-.105.048Z" transform="translate(-22.926 -7.614)" fill="#fff"/>
  <path id="Path_250" data-name="Path 250" d="M32.549,39.184a1.889,1.889,0,0,0,.593.092v-.062a1.191,1.191,0,0,0,.031-.119,3.383,3.383,0,0,0,.053-.532.751.751,0,0,1-.281-.3.373.373,0,0,0-.36-.246,1.169,1.169,0,0,0-.545.189.958.958,0,0,0,.5.971" transform="translate(-17.959 -21.317)" fill="#fff"/>
  <path id="Path_251" data-name="Path 251" d="M39.15,36.61c-.4.439-1.177,1.186-1.213,1.226l-.048.048-2.46-.04a2.53,2.53,0,0,1-.079.6v.079l2.921.523c.3-.211,1.142-.826,1.467-1.063a1.428,1.428,0,0,1-.206-1.046,1.472,1.472,0,0,1-.369-.329" transform="translate(-19.82 -20.527)" fill="#fff"/>
  <path id="Path_252" data-name="Path 252" d="M41.662,29.87a2.592,2.592,0,0,1-1.595.817,2.636,2.636,0,0,1-.268,0h0a2.636,2.636,0,0,1-.268,0,1.973,1.973,0,0,1-.264-.04,1,1,0,0,0,.044.641,1.019,1.019,0,0,0,.615.51l.1.04v.11a1.024,1.024,0,0,0,.8.949c.127-.132.242-.25.329-.351a.808.808,0,0,1,.167-.945,1.318,1.318,0,0,0,.641,1.318l.123.057-.035.132a1.037,1.037,0,0,0,.65,1.287l.163.062-.07.158a1.019,1.019,0,0,0,.47,1.318H45.1v-1.45a1.16,1.16,0,0,1-1-.971,1.059,1.059,0,0,1-.694-.4.879.879,0,0,1-.048-.993,1.252,1.252,0,0,0,.3.8.945.945,0,0,0,.6.286h.132v.136a.879.879,0,0,0,.694.8V31.219a3.884,3.884,0,0,1,.294-1.349Z" transform="translate(-21.998 -16.748)" fill="#fff"/>
  <path id="Path_253" data-name="Path 253" d="M33.5,32.388l-.053,1.889.215.031.527-1.81-.268-.558Z" transform="translate(-18.755 -17.908)" fill="#fff"/>
  <path id="Path_254" data-name="Path 254" d="M39.144,49.229H39.2c.325.092.409,1.27.98,1.375a.747.747,0,0,0,.154,0,.439.439,0,0,0,.369-.2s-.29-.439-.505-.76c-.286-.4-.51-.879-1.041-.879h-.04a.536.536,0,0,0-.286.1,1.1,1.1,0,0,0-.6-.18,4.161,4.161,0,0,0-.725.154h0l-1.191-.119a.633.633,0,0,1-.387-.277v-.127a1.4,1.4,0,0,0-1.063-1.4s.031-.185-.04-.255l-.264.316-.879-.439.615.716-.518.584a.163.163,0,0,0-.031.193l.224.2.286-.171a.132.132,0,0,1,.07,0h.3c.105,0,.215-.026.228-.132-.035.36-.369.988-.149,1.481l.158.409-1.05-.149-.492.83a.668.668,0,0,0-.031.738l.185.228a1.757,1.757,0,0,0,.316-.439l-.083-.092a.176.176,0,0,1-.022-.228L34,50.191l1.243.294.066-.11a.365.365,0,0,1,.338-.18,1.1,1.1,0,0,1,.171,0,5.355,5.355,0,0,0,.988.105,1.415,1.415,0,0,0,1.05-.321c.439.668,1.362.773,1.287,1.111L38.9,52.234a1.544,1.544,0,0,0,.439-.04l.228-1.186c.026-.127.048-.3.048-.3a2.2,2.2,0,0,1-.439-.505c-.163-.308-.075-.47-.224-.879a.176.176,0,0,1,.149-.092m-4.648-1.669a.108.108,0,1,1,.013-.215.108.108,0,0,1,0,.215" transform="translate(-18.615 -26.094)" fill="#fff"/>
  <path id="Path_255" data-name="Path 255" d="M32.119,53.371s.413-.171.439-.29l-.053-.136a.185.185,0,0,1,.044-.237l.439-.308.742.141a.628.628,0,0,1-.123-.391L32.914,52l-.668.409a.65.65,0,0,0-.211.773Z" transform="translate(-17.933 -29.155)" fill="#fff"/>
  <path id="Path_256" data-name="Path 256" d="M44.24,57.5h.439s.382-1.116.4-1.151a9.35,9.35,0,0,1-.83-.439c.114.171.391.365.334.514Z" transform="translate(-24.805 -31.348)" fill="#fff"/>
  <path id="Path_257" data-name="Path 257" d="M39.064,44.45H28.52V48.4a2.609,2.609,0,0,0,2.908,2.636c1.45,0,1.832.057,2.368.593a1.757,1.757,0,0,1,1.318-.562v-.062l.334-1.028-.567-.619a2.039,2.039,0,0,1-.7.083,5.743,5.743,0,0,1-1.054-.11h-.11c-.048,0-.048,0-.062.026l-.066.11-.119.2-.228-.053-1.015-.237-.141.228v.026l.123.136-.053.176a1.828,1.828,0,0,1-.391.576l-.255.272-.233-.29-.171-.215a.879.879,0,0,1-.123-.843h0L30,49.564l-.127-.281-.07-.2a.967.967,0,0,1,.321-1.164l.817-.439.778.154a2.481,2.481,0,0,1,.07-.409H31.74l-.439.167-.439-.3a.228.228,0,0,1,0-.325l.417-.633L30.22,44.819l1.586.624.11-.132.22-.264.25.237a.474.474,0,0,1,.132.237,2.016,2.016,0,0,1,1.318,1.524l-.25.1h0a.308.308,0,0,0,.119.1l1.16.114.105-.031a1.876,1.876,0,0,1,.619-.119,1.419,1.419,0,0,1,.606.141.914.914,0,0,1,.264-.053h.057a1.437,1.437,0,0,1,1.177.835l.127.185c.215.308.5.756.514.773l.127.2-.158.185a.773.773,0,0,1-.615.3,1.128,1.128,0,0,1-.211,0,.914.914,0,0,1-.185-.057.4.4,0,0,1-.035.2l-.18,1.037a2.482,2.482,0,0,0,1.99-2.535Z" transform="translate(-15.991 -24.922)" fill="#fce527"/>
  <path id="Path_258" data-name="Path 258" d="M28.114,35.955h8.211a1.318,1.318,0,0,1-.3-1.318,1.366,1.366,0,0,1-.308-.2c-.321.237-1.318.949-1.555,1.129l-.053.035-3.225-.571h-.066a2.69,2.69,0,0,1-.316,0,.312.312,0,0,1-.3.246h-.053a.321.321,0,0,1-.264-.365v-.07a1.287,1.287,0,0,1-.505-1.318v-.057l.048-.035s.062-.044.145-.092L29.34,33.3a.163.163,0,0,1-.132-.185.158.158,0,0,1,.185-.132l.558.088L30,31.109l.83-.879.518,1.09-.545,1.889.492.079a.163.163,0,0,1,.132.185.158.158,0,0,1-.158.132h-.026l-.4-.066v.031a.439.439,0,0,0,.193.18l2.456.04.628-.619a1.318,1.318,0,0,1-.879-1.094,1.287,1.287,0,0,1-.7-.641,1.318,1.318,0,0,1-.057-.879,2.869,2.869,0,0,1-1.024-.685H27.82a3.954,3.954,0,0,1,.294,1.349Z" transform="translate(-15.598 -16.748)" fill="#fce527"/>
  <path id="Path_259" data-name="Path 259" d="M36.034,48.37a.108.108,0,1,0-.013.215.108.108,0,1,0,0-.215" transform="translate(-20.139 -27.12)" fill="#222220"/>
  <path id="Path_260" data-name="Path 260" d="M38.2,62.8l-.606-.233.167-.628.185-.685a14.361,14.361,0,0,1-2.6,1.024c-.439.123-.756.18-.756.18V62.9a10.924,10.924,0,0,1-1.634.141h-.048a10.9,10.9,0,0,1-1.634-.141v-.439s-.321-.062-.76-.185a14.334,14.334,0,0,1-2.6-1.024l.18.685.171.628-.611.233-.659.25a17.731,17.731,0,0,0,2.825,1.169l-.233.633a8.751,8.751,0,0,0,3.326.576h.026a8.742,8.742,0,0,0,3.326-.576l-.228-.633a17.573,17.573,0,0,0,2.82-1.169Zm-10.482.294,1-.334-.294-.966a13.06,13.06,0,0,0,2,.8l-.483,1.318a12.112,12.112,0,0,1-2.223-.83m5.215,2.016a11.1,11.1,0,0,1-2.86-.391l.593-1.608a9.621,9.621,0,0,0,2.262.29h.048a9.665,9.665,0,0,0,2.262-.29l.593,1.608a11.084,11.084,0,0,1-2.878.409m3-1.191L35.47,62.6a13.044,13.044,0,0,0,2-.8l-.294.966,1,.334a12.054,12.054,0,0,1-2.223.83" transform="translate(-15.138 -34.342)" fill="#222220"/>
  <path id="Path_261" data-name="Path 261" d="M36.043,4.584a4.564,4.564,0,0,1,2.776.848,5.514,5.514,0,0,1,.716-1.841l-1,.114L38.02,2.594l-1.006.518-.971-.962-.971.962-1.006-.518-.518,1.111-1-.114a5.5,5.5,0,0,1,.716,1.841,4.573,4.573,0,0,1,2.777-.848M33.5,4.092l.277.031.119-.25.347-.747.646.334.25.127.2-.185.7-.707.7.707.2.2.25-.127.641-.334.351.747.119.25.277-.031.264-.031a6.244,6.244,0,0,0-.272.747,5.544,5.544,0,0,0-5.057,0,6.435,6.435,0,0,0-.272-.747Z" transform="translate(-18.25 -1.205)" fill="#222220"/>
  <path id="Path_262" data-name="Path 262" d="M59.291,22.029a2.413,2.413,0,0,0,2.157-1.7l.18-.576h-.6A4.3,4.3,0,0,1,57.8,18.114l-.119-.145A6.29,6.29,0,0,0,54.7,15.487a1.4,1.4,0,0,1,.176-.132A2.61,2.61,0,0,0,56.145,13.6a2.6,2.6,0,0,0-.527-1.88l-.439-.549-.277.655a1.771,1.771,0,0,1-1.472,1.09h-.29a2.377,2.377,0,0,0-.685-1.863,3.128,3.128,0,0,0-2.258-.94,3,3,0,0,0-.47.035l-.672.132.417.549c.325.439.619,1.2.272,1.608a1.893,1.893,0,0,1-.562.338c-.439.206-1.072.5-1.072,1.239a1.862,1.862,0,0,0,1.046,1.406,8.483,8.483,0,0,1,3.739,4.011A3.185,3.185,0,0,1,51.6,23.584l-.466.3.409.373a2.35,2.35,0,0,0,1.292.554h.4a4.108,4.108,0,0,0,1.2-.176,3.075,3.075,0,0,1-.343.483,2.943,2.943,0,0,1-2.381,1.019h-.391l-.031.391a1.85,1.85,0,0,0,.655,1.423,1.525,1.525,0,0,0,.365.237A3.422,3.422,0,0,0,51.282,30.6a3.317,3.317,0,0,1-.329,1.437l-.439.659H51.3a3.936,3.936,0,0,0,2.965-1.063,3.361,3.361,0,0,0,.773-1.318,2.1,2.1,0,0,0,.879.439,2.056,2.056,0,0,0,.47.053,3.075,3.075,0,0,0,.7-.083l.5-.132-.22-.466a3.317,3.317,0,0,1,0-2.306,7.6,7.6,0,0,0,.338-1.494,2.746,2.746,0,0,0,1.278.3,2.118,2.118,0,0,0,1.806-.962l.242-.439-.439-.185a3.518,3.518,0,0,1-1.863-3.141,2.746,2.746,0,0,0,.439.053Zm1.169,3.479a1.669,1.669,0,0,1-1.415.747h0a2,2,0,0,1-1.665-.729,6.225,6.225,0,0,1-.36,2.2,3.734,3.734,0,0,0,0,2.636,2.561,2.561,0,0,1-.6.075,1.48,1.48,0,0,1-.369-.044,1.727,1.727,0,0,1-1.239-1.138s.092,3.049-3.462,3.049h-.026a3.466,3.466,0,0,0,.4-1.652c.154-2.254,1.683-2.574,1.683-2.574a2.719,2.719,0,0,1-1.173-.439,1.445,1.445,0,0,1-.514-1.081,3.361,3.361,0,0,0,2.693-1.164,3.431,3.431,0,0,0,.786-1.625,3.075,3.075,0,0,1-1.973.611h-.36a1.907,1.907,0,0,1-1.041-.439,3.613,3.613,0,0,0,1.463-4.661,9.152,9.152,0,0,0-3.928-4.222c-.54-.334-.865-.712-.865-1.037,0-.764,1.085-.786,1.533-1.318a1.8,1.8,0,0,0-.255-2.144,2.131,2.131,0,0,1,.387-.031,2.684,2.684,0,0,1,1.951.813,1.915,1.915,0,0,1,.518,1.92l.237.048a2.767,2.767,0,0,0,.439.044h.1A2.251,2.251,0,0,0,55.275,12a1.96,1.96,0,0,1-.646,3c-.347.224-.5.439-.439.659l.031.145.145.026c1.463.4,2.2,1.406,3.106,2.552a4.731,4.731,0,0,0,3.554,1.8h.026a2,2,0,0,1-1.757,1.4h-.062a1.7,1.7,0,0,1-.909-.25s-.233,3.176,2.135,4.16" transform="translate(-26.974 -5.668)" fill="#222220"/>
  <path id="Path_263" data-name="Path 263" d="M66.365,21.454a3.954,3.954,0,0,1,1.252,1.12,2.355,2.355,0,0,0,1.028.879,1.529,1.529,0,0,0,.5.079,1.8,1.8,0,0,0,1.595-.98l.255-.571-.619-.035a2.961,2.961,0,0,1-1.713-.98A1.757,1.757,0,0,0,67.38,20.4a2.012,2.012,0,0,0-1.059.321l-.571.4Zm1.015-.624a1.318,1.318,0,0,1,.975.439,3.392,3.392,0,0,0,1.99,1.107,1.379,1.379,0,0,1-1.2.725,1.1,1.1,0,0,1-.365-.062c-.712-.242-.962-1.318-2.2-1.968a1.546,1.546,0,0,1,.813-.246" transform="translate(-36.865 -11.438)" fill="#222220"/>
  <path id="Path_264" data-name="Path 264" d="M59.111,26.458h0A8.585,8.585,0,0,0,54.3,20.193c-.215-.119-.417-.215-.611-.308a3.378,3.378,0,0,0,2.75-.646s-1.357,1-4.134.092a28.456,28.456,0,0,1,3.629,2.346c3.409,3,.971,5.922.971,5.922a3.589,3.589,0,0,0,.918-3.769,7.029,7.029,0,0,1,.993,3.985,10.318,10.318,0,0,1-2.693,5.918,3.954,3.954,0,0,0-.782,1.731,5.351,5.351,0,0,1,1-1.709,9.853,9.853,0,0,0,2.807-5.909,4.232,4.232,0,0,0,1.722,2.2s-1.213-.729-1.757-3.576" transform="translate(-29.329 -10.788)" fill="#222220"/>
  <path id="Path_265" data-name="Path 265" d="M12.791,32.106a3.418,3.418,0,0,1-.329-1.437,3.422,3.422,0,0,0-1.037-2.407,1.5,1.5,0,0,0,.365-.237,1.845,1.845,0,0,0,.655-1.423l-.026-.391h-.4a2.943,2.943,0,0,1-2.377-1.019,3.216,3.216,0,0,1-.343-.483,4.09,4.09,0,0,0,1.2.176h.4a2.355,2.355,0,0,0,1.3-.554l.409-.373-.466-.3A3.18,3.18,0,0,1,10.854,19.5,8.495,8.495,0,0,1,14.61,15.5c.672-.439,1.041-.927,1.041-1.406,0-.738-.619-1.032-1.072-1.239a1.876,1.876,0,0,1-.562-.338c-.351-.409-.057-1.186.272-1.608l.439-.549-.677-.132a2.957,2.957,0,0,0-.47-.035,3.119,3.119,0,0,0-2.289.9,2.381,2.381,0,0,0-.707,1.867h-.264a1.787,1.787,0,0,1-1.472-1.09l-.277-.655-.439.549a2.636,2.636,0,0,0-.523,1.88A2.6,2.6,0,0,0,8.881,15.4a1.318,1.318,0,0,1,.176.132,6.217,6.217,0,0,0-2.983,2.482l-.119.149a4.3,4.3,0,0,1-3.233,1.639h-.6l.185.576a2.376,2.376,0,0,0,2.157,1.7h.079a2.807,2.807,0,0,0,.439-.053,3.523,3.523,0,0,1-1.867,3.141l-.439.185.242.439a2.118,2.118,0,0,0,1.806.962,2.75,2.75,0,0,0,1.274-.3,7.543,7.543,0,0,0,.338,1.494,3.317,3.317,0,0,1,0,2.306l-.22.466.5.132a3.075,3.075,0,0,0,.7.083,2.038,2.038,0,0,0,.47-.053,2.091,2.091,0,0,0,.879-.439,3.356,3.356,0,0,0,.773,1.318A3.968,3.968,0,0,0,12.4,32.826h.782Zm-.378.246c-3.554,0-3.466-3.049-3.466-3.049a1.727,1.727,0,0,1-1.239,1.138,1.459,1.459,0,0,1-.369.044,2.544,2.544,0,0,1-.593-.075,3.747,3.747,0,0,0,0-2.636,6.238,6.238,0,0,1-.356-2.2,2,2,0,0,1-1.665.729H4.7a1.669,1.669,0,0,1-1.419-.751c2.368-.984,2.135-4.16,2.135-4.16a1.709,1.709,0,0,1-.909.25H4.462a2,2,0,0,1-1.757-1.4h.026a4.727,4.727,0,0,0,3.558-1.8c.9-1.147,1.643-2.157,3.106-2.552l.145-.026.031-.145c.04-.224-.114-.439-.439-.659a1.96,1.96,0,0,1-.646-3,2.235,2.235,0,0,0,1.867,1.349h.062a2.825,2.825,0,0,0,.439-.044l.237-.048a1.911,1.911,0,0,1,.518-1.92,2.684,2.684,0,0,1,1.951-.813,2.113,2.113,0,0,1,.387.031c-.439.584-.764,1.551-.25,2.144.439.514,1.529.536,1.529,1.318,0,.325-.3.7-.843,1.041a9.107,9.107,0,0,0-3.928,4.222A3.608,3.608,0,0,0,11.917,24a1.915,1.915,0,0,1-1.041.439h-.365a3.075,3.075,0,0,1-1.973-.611,3.453,3.453,0,0,0,.782,1.625,3.374,3.374,0,0,0,2.7,1.164A1.445,1.445,0,0,1,11.5,27.7a2.724,2.724,0,0,1-1.173.439s1.533.312,1.7,2.574a3.484,3.484,0,0,0,.4,1.652Z" transform="translate(-1.189 -5.712)" fill="#222220"/>
  <path id="Path_266" data-name="Path 266" d="M5.175,23.528a1.533,1.533,0,0,0,.5-.079A2.35,2.35,0,0,0,6.7,22.57a3.954,3.954,0,0,1,1.248-1.12l.615-.329-.571-.4A2,2,0,0,0,6.937,20.4a1.757,1.757,0,0,0-1.278.571,2.965,2.965,0,0,1-1.709.98l-.619.031.25.571a1.8,1.8,0,0,0,1.59.975m.786-2.258a1.318,1.318,0,0,1,.975-.439,1.551,1.551,0,0,1,.808.246c-1.243.663-1.5,1.727-2.2,1.968a1.072,1.072,0,0,1-.36.062,1.375,1.375,0,0,1-1.213-.729,3.387,3.387,0,0,0,1.99-1.107" transform="translate(-1.867 -11.438)" fill="#222220"/>
  <path id="Path_267" data-name="Path 267" d="M11.266,27.856a6.981,6.981,0,0,1,.993-3.985,3.585,3.585,0,0,0,.918,3.769s-2.443-2.926.971-5.922a28.469,28.469,0,0,1,3.624-2.346c-2.776.9-4.134-.092-4.134-.092a3.374,3.374,0,0,0,2.746.646c-.193.092-.4.193-.611.308-2.342,1.274-4.459,3.37-4.806,6.269V26.48c-.545,2.847-1.757,3.576-1.757,3.576a4.2,4.2,0,0,0,1.718-2.2,9.785,9.785,0,0,0,2.812,5.909,5.4,5.4,0,0,1,1,1.709,3.954,3.954,0,0,0-.791-1.722,10.281,10.281,0,0,1-2.684-5.9" transform="translate(-5.164 -10.81)" fill="#222220"/>
  <path id="Path_268" data-name="Path 268" d="M38.67,25.45v.576a.707.707,0,0,1,.584-.193v.83a1.235,1.235,0,0,1-.158.584h.83a1.256,1.256,0,0,1-.158-.584v-.83a.707.707,0,0,1,.58.193V25.45Z" transform="translate(-21.682 -14.269)" fill="#222220"/>
  <path id="Path_269" data-name="Path 269" d="M37.311,16.855a1.318,1.318,0,0,0,.439.25l.105.048v-.545L36.88,16.2a.975.975,0,0,0,.439.655" transform="translate(-20.678 -9.083)" fill="#222220"/>
  <path id="Path_270" data-name="Path 270" d="M42.456,16.855A.975.975,0,0,0,42.9,16.2l-.975.409v.54l.1-.048a1.318,1.318,0,0,0,.439-.25" transform="translate(-23.504 -9.083)" fill="#222220"/>
  <path id="Path_271" data-name="Path 271" d="M35.182,10.68c0-.822-1.384-1.56-2.908-1.56h0c-1.524,0-2.908.738-2.908,1.56l.031.2.611,3.515-.611.356-1.595.9h0s-.356.185-.523.294c-.6.439-.729,1.028-.382,1.283a1.2,1.2,0,0,1,1.217-1.019,1.586,1.586,0,0,1,1.261.685,3.256,3.256,0,0,1,.237.334c.092.149.185.281.277.409H25.82a4.393,4.393,0,0,1,.584,1.933v9.037c0,2.2,1.683,3.229,3.515,3.229,1.406,0,1.595-.066,2.368.707.773-.773.962-.707,2.368-.707a3.2,3.2,0,0,0,3.515-3.229V19.585a4.393,4.393,0,0,1,.584-1.933H34.642c.092-.127.185-.259.277-.409a3.8,3.8,0,0,1,.237-.334,1.59,1.59,0,0,1,1.265-.685,1.2,1.2,0,0,1,1.217,1.019c.351-.25.224-.879-.382-1.283a5.832,5.832,0,0,0-.518-.294h0l-1.582-.931-.611-.356.611-3.515Zm-5.228.4,2.144.725v3.365l-1.577-.835Zm.439,7.152a2.864,2.864,0,0,0,1.024.685,1.318,1.318,0,0,0,.057.879,1.287,1.287,0,0,0,.7.641,1.318,1.318,0,0,0,.879,1.094c-.264.268-.523.518-.628.619l-2.456-.04a.439.439,0,0,1-.193-.18V21.9l.4.066H30.2a.158.158,0,0,0,.158-.132.163.163,0,0,0-.132-.185l-.492-.079.545-1.889-.518-1.09-.83.879-.053,1.964-.558-.088a.158.158,0,0,0-.185.132.163.163,0,0,0,.132.185l.233.035a.925.925,0,0,0-.145.092l-.048.035v.057a1.292,1.292,0,0,0,.505,1.318v.07a.321.321,0,0,0,.264.365h.053a.312.312,0,0,0,.3-.246,2.68,2.68,0,0,0,.312,0h.066l3.22.584.053-.035c.255-.18,1.234-.879,1.555-1.129a1.371,1.371,0,0,0,.308.2,1.318,1.318,0,0,0,.3,1.318h-8.25V19.585a3.954,3.954,0,0,0-.294-1.349Zm3.98,4.336c-.325.242-1.164.852-1.467,1.063l-2.921-.51v-.079a2.548,2.548,0,0,0,.079-.6l2.46.04.048-.048c.04-.04.817-.791,1.213-1.226a1.485,1.485,0,0,0,.369.329,1.423,1.423,0,0,0,.206,1.046m-4.881-.518a.751.751,0,0,0,.281.3,3.413,3.413,0,0,1-.053.532.173.173,0,0,1-.031.119v.062a1.889,1.889,0,0,1-.593-.092.953.953,0,0,1-.492-.971,1.164,1.164,0,0,1,.527-.206.369.369,0,0,1,.36.246m-.3-.584.048-1.858.439-.439.268.558-.523,1.81Zm5.18,9.788h-.439l.329-1.076c.053-.149-.22-.343-.334-.514a9.191,9.191,0,0,0,.83.439c0,.035-.4,1.151-.4,1.151m1.094-1.234L35.2,31.209c-.145,0-.3.031-.439.04l.242-1.142c.07-.338-.839-.439-1.287-1.111a1.415,1.415,0,0,1-1.05.321,5.351,5.351,0,0,1-.988-.105,1.063,1.063,0,0,0-.171,0,.36.36,0,0,0-.338.18l-.066.11-1.252-.3-.3.518a.18.18,0,0,0,.022.228l.083.092a1.757,1.757,0,0,1-.316.439l-.185-.228a.668.668,0,0,1,.031-.738l.492-.83,1.05.158-.163-.373c-.22-.492.114-1.12.149-1.481,0,.11-.114.132-.228.132h-.3a.127.127,0,0,0-.07,0l-.286.171-.224-.206a.163.163,0,0,1,.031-.193l.518-.584-.615-.716.879.439.264-.316c.07.07.04.255.04.255a1.4,1.4,0,0,1,1.063,1.4v.127a.628.628,0,0,0,.387.277l1.191.119h0a4.165,4.165,0,0,1,.725-.154,1.1,1.1,0,0,1,.6.18.532.532,0,0,1,.286-.1h.04c.532,0,.756.483,1.041.879.215.3.505.76.505.76a.439.439,0,0,1-.369.2.769.769,0,0,1-.154,0c-.571-.105-.655-1.283-.98-1.375H35a.176.176,0,0,0-.149.092c.149.4.062.562.224.879a2.2,2.2,0,0,0,.439.505s-.022.176-.048.3M29.058,28.9l.053.136c-.035.119-.439.29-.439.29l-.088-.193a.65.65,0,0,1,.211-.773l.663-.4.707.149a.628.628,0,0,0,.123.391l-.742-.141-.439.308a.189.189,0,0,0-.04.237m6.5,2.245.2-1.063a1.539,1.539,0,0,1,.031-.2.91.91,0,0,0,.185.057,1.134,1.134,0,0,0,.211,0,.773.773,0,0,0,.615-.3l.158-.185-.132-.18s-.294-.466-.514-.773l-.123-.185a1.437,1.437,0,0,0-1.177-.835h-.057a.9.9,0,0,0-.264.053,1.419,1.419,0,0,0-.606-.141,1.885,1.885,0,0,0-.619.119l-.105.031-1.16-.114a.312.312,0,0,1-.119-.1h0l.25-.1A2.009,2.009,0,0,0,31.022,25.7a.474.474,0,0,0-.132-.237l-.25-.237-.22.264-.11.132-1.625-.668,1.059,1.318-.417.633a.228.228,0,0,0,0,.325l.439.3.439-.167h.044a2.844,2.844,0,0,1-.07.409l-.764-.132-.817.439a.967.967,0,0,0-.312,1.195l.092.2.127.281.286-.119h0a.879.879,0,0,0,.123.843l.171.22.228.29.255-.272a1.81,1.81,0,0,0,.391-.576l.053-.176-.123-.136V29.8l.141-.228,1.015.237.228.053.123-.2.066-.11c0-.022,0-.026.062-.026h.11a5.711,5.711,0,0,0,1.05.11,2.038,2.038,0,0,0,.7-.083l.562.641-.334,1.028v.062a1.757,1.757,0,0,0-1.318.562c-.54-.536-.923-.593-2.368-.593a2.612,2.612,0,0,1-2.908-2.636V24.663H37.563v3.954a2.482,2.482,0,0,1-2,2.53m2.284-12.912a3.875,3.875,0,0,0-.294,1.349v2.961a.879.879,0,0,1-.694-.8V21.61h-.132a.94.94,0,0,1-.6-.286,1.252,1.252,0,0,1-.3-.8.879.879,0,0,0,.048.993,1.059,1.059,0,0,0,.694.4,1.16,1.16,0,0,0,1,.971v1.45H35.722a1.019,1.019,0,0,1-.47-1.318l.07-.158L35.16,22.8a1.037,1.037,0,0,1-.65-1.287l.035-.132-.123-.057A1.318,1.318,0,0,1,33.78,20a.808.808,0,0,0-.149.927c-.088.1-.2.22-.329.351a1.024,1.024,0,0,1-.813-.967V20.2l-.1-.04a1.019,1.019,0,0,1-.615-.51,1,1,0,0,1-.044-.641,1.889,1.889,0,0,0,.264.04,2.6,2.6,0,0,0,.268,0h0a2.513,2.513,0,0,0,1.863-.835ZM35,15.24l.72.439h0l.18.105a2.126,2.126,0,0,0-.98.584l-.031.026c-.062.066-.119.132-.176.2l-.035.044a2.547,2.547,0,0,0-.158.224l-.026.04c-.062.088-.119.185-.176.281A2.592,2.592,0,0,1,32.26,18.6a2.592,2.592,0,0,1-2.06-1.415c-.057-.1-.114-.189-.171-.281l-.035-.048-.141-.228-.04-.048q-.086-.105-.171-.2l-.031-.031a2.126,2.126,0,0,0-.98-.584l.185-.105h0l.725-.439.742-.439,1.981,1.076h0l1.981-1.041Zm-.975-.879-1.577.83V11.813l2.139-.725Zm-1.757-2.9-2.346-.94c.2-.474,1.12-.879,2.346-.879s2.148.4,2.346.879Z" transform="translate(-14.477 -5.113)" fill="#222220"/>
</svg>
