<svg id="hourglass" data-name="hourglass" xmlns="http://www.w3.org/2000/svg" xmlns:xlink="http://www.w3.org/1999/xlink" viewBox="0 0 22.766 35.794">
  <defs>
    <linearGradient id="linear-gradient" y1="0.5" x2="1" y2="0.5" gradientUnits="objectBoundingBox">
      <stop offset="0.14" stop-color="#4e4d4d"/>
      <stop offset="0.825" stop-color="#0d003f"/>
    </linearGradient>
    <linearGradient id="linear-gradient-3" y1="0.5" x2="1" y2="0.5" gradientUnits="objectBoundingBox">
      <stop offset="0.14" stop-color="#fb0"/>
      <stop offset="0.825" stop-color="gold"/>
    </linearGradient>
    <linearGradient id="linear-gradient-4" x1="0.5" y1="1" x2="0.5" y2="0" xlink:href="#linear-gradient-3"/>
  </defs>
  <path id="Path_190" data-name="Path 190" d="M22.756,4.566H0V0H22.756Z" fill="url(#linear-gradient)"/>
  <path id="Path_191" data-name="Path 191" d="M25.678,46.6l9.271-13.421H16.823Z" transform="translate(-14.508 -28.613)" fill="#e1266f"/>
  <path id="Path_192" data-name="Path 192" d="M22.826,226.914H.07v4.566H22.826Z" transform="translate(-0.06 -195.686)" fill="url(#linear-gradient)"/>
  <path id="Path_193" data-name="Path 193" d="M25.748,129.388l9.271,13.421H16.893Z" transform="translate(-14.568 -111.582)" fill="#e1266f"/>
  <path id="Path_194" data-name="Path 194" d="M47.651,76.311l5.334-7.688a5.724,5.724,0,0,0-1.456-.971c-.86-.155-2.559.573-3.4.8a13.642,13.642,0,0,1-2.351.707,17.126,17.126,0,0,1-3.473-.913Z" transform="translate(-36.48 -58.323)" fill="url(#linear-gradient-3)"/>
  <path id="Path_195" data-name="Path 195" d="M16.893,192.358H35.019l-2.743-4a32.785,32.785,0,0,0-3.513-.4c-.4.014-1.156.328-1.55.294-.982-.083-2.678-1.213-3.65-1.366a25.182,25.182,0,0,0-3.142.072Z" transform="translate(-14.568 -161.13)" fill="url(#linear-gradient-4)"/>
  <path id="Path_196" data-name="Path 196" d="M69.629,150.4l1.089.363-.816.708Z" transform="translate(-60.047 -129.704)" fill="gold"/>
  <circle id="Ellipse_74" data-name="Ellipse 74" cx="0.327" cy="0.327" r="0.327" transform="translate(11.166 22.799)" fill="gold"/>
  <circle id="Ellipse_75" data-name="Ellipse 75" cx="0.532" cy="0.532" r="0.532" transform="translate(8.097 23.688)" fill="gold"/>
  <path id="Path_197" data-name="Path 197" d="M82.507,142.65l1.088.363-.816.708Z" transform="translate(-71.152 -123.019)" fill="gold"/>
  <circle id="Ellipse_76" data-name="Ellipse 76" cx="0.206" cy="0.206" r="0.206" transform="translate(10.836 18.732)" fill="gold"/>
</svg>
