<svg xmlns="http://www.w3.org/2000/svg" width="19" height="15.036" viewBox="0 0 19 15.036">
  <g id="Group_251" data-name="Group 251" transform="translate(-233.5 -567.467)">
    <path id="Path_319" data-name="Path 319" d="M10.025,64.863,18.7,68.274a.488.488,0,0,0,.357,0l8.666-3.413a.24.24,0,0,0,0-.449l-8.84-3.283-8.846,3.285A.24.24,0,0,0,10.025,64.863Z" transform="translate(224.128 513.692)" fill="none" stroke="#242424" strokeMiterlimit="10" strokeWidth="1"/>
    <path id="Path_320" data-name="Path 320" d="M10.025,64.863,18.7,68.274a.488.488,0,0,0,.357,0l8.666-3.413a.24.24,0,0,0,0-.449l-8.84-3.283-8.846,3.285A.24.24,0,0,0,10.025,64.863Z" transform="translate(224.128 510.592)" fill="#fff" stroke="#242424" strokeMiterlimit="10" strokeWidth="1"/>
    <path id="Path_321" data-name="Path 321" d="M10.025,64.863,18.7,68.274a.488.488,0,0,0,.357,0l8.666-3.413a.24.24,0,0,0,0-.449l-8.84-3.283-8.846,3.285A.24.24,0,0,0,10.025,64.863Z" transform="translate(224.128 506.871)" fill="#fff" stroke="#242424" strokeMiterlimit="10" strokeWidth="1"/>
  </g>
</svg>
