<svg id="Слой_2" data-name="Слой 2" xmlns="http://www.w3.org/2000/svg" xmlns:xlink="http://www.w3.org/1999/xlink" viewBox="0 0 91.648 92.822">
  <defs>
    <linearGradient id="linear-gradient" x1="0.5" x2="0.5" y2="1" gradientUnits="objectBoundingBox">
      <stop offset="0.196" stop-color="#24266f"/>
      <stop offset="0.915" stop-color="#242653"/>
    </linearGradient>
    <linearGradient id="linear-gradient-2" x1="0.5" y1="-0.656" x2="0.5" y2="1.656" gradientUnits="objectBoundingBox">
      <stop offset="0.197" stop-color="#65353e"/>
      <stop offset="0.915" stop-color="#45273a"/>
    </linearGradient>
    <linearGradient id="linear-gradient-3" x1="0" y1="0.5" x2="1" y2="0.5" xlink:href="#linear-gradient-2"/>
    <linearGradient id="linear-gradient-4" y1="0.5" x2="1" y2="0.5" gradientUnits="objectBoundingBox">
      <stop offset="0.196" stop-color="#24266f"/>
      <stop offset="0.792" stop-color="#242653"/>
    </linearGradient>
  </defs>
  <g id="Слой_1" data-name="Слой 1">
    <path id="Path_55" data-name="Path 55" d="M83.67,49.736l-5.5,6.067,11.99,2.21Z" transform="translate(-55.13 -40.101)" fill="#bf266f"/>
    <path id="Path_56" data-name="Path 56" d="M200.657,107.189s5.857,2.224,7.263,3.7a14.728,14.728,0,0,1,2.742,6.074c.168,1.188-.943,3.579-.684,4.75.329,1.491,3.335,5.115,3.335,5.115l-3.242,2.239s-2.444-4.052-2.788-5.572c-.39-1.727.722-5.41.135-7.08a11.045,11.045,0,0,0-2.97-3.562,35.2,35.2,0,0,0-5.345-2.511Z" transform="translate(-127.823 -74.636)" fill="#24266f"/>
    <path id="Path_57" data-name="Path 57" d="M236.872,111.592l2.811,3.641,2.411-6.412Z" transform="translate(-150.525 -75.617)" fill="#bf266f"/>
    <path id="Path_58" data-name="Path 58" d="M193.449,67.277l-10.274-4.328,2.231,6.559Z" transform="translate(-133.018 -62.814)" fill="#bf266f"/>
    <path id="Path_59" data-name="Path 59" d="M141.239,53.287l2.811,3.641,2.411-6.412Z" transform="translate(-93.039 -40.57)" fill="#bf266f"/>
    <ellipse id="Ellipse_18" data-name="Ellipse 18" cx="2.908" cy="2.908" rx="2.908" ry="2.908" transform="translate(76.175 26.864)" fill="#60cd6f"/>
    <circle id="Ellipse_19" data-name="Ellipse 19" cx="3.024" cy="3.024" r="3.024" transform="translate(62.169 4.084)" fill="#bf266f"/>
    <ellipse id="Ellipse_20" data-name="Ellipse 20" cx="2.908" cy="2.908" rx="2.908" ry="2.908" transform="translate(71.505 8.875)" fill="#60cd6f"/>
    <ellipse id="Ellipse_21" data-name="Ellipse 21" cx="2.346" cy="2.346" rx="2.346" ry="2.346" transform="translate(36.789)" fill="#60cd6f"/>
    <path id="Path_60" data-name="Path 60" d="M78.021,94.985a2.451,2.451,0,0,1-1.535-1.29,1.4,1.4,0,0,1,.094-1.143.925.925,0,0,1,.662-.489,4.8,4.8,0,0,1-.7-.185,2.04,2.04,0,0,1-1.426-1.756A2.185,2.185,0,0,1,76.14,88.1a2.731,2.731,0,0,1-.557-4.65,4.2,4.2,0,0,1,1.861-.754l.108.015.092.059,0-.011a2.494,2.494,0,0,1-.927-1.837,3.551,3.551,0,0,1,1-2.668,6.446,6.446,0,0,1,4.755-1.493,2.881,2.881,0,0,1,.533-3.182,2.838,2.838,0,0,1,2.958-.639,1.414,1.414,0,0,1,.207.09,2.1,2.1,0,0,1,2.791-2.511,2.045,2.045,0,0,1,.885.619A2.757,2.757,0,0,1,92.5,68.952a2.593,2.593,0,0,1,.851.163A2.748,2.748,0,0,1,95.1,71.183a2.7,2.7,0,0,1,2.985-1.021l.078.029a2.67,2.67,0,0,1,1.707,2.569,1.945,1.945,0,0,1,1.768-.193,1.839,1.839,0,0,1,.775.54,1.935,1.935,0,0,1-.2,2.548,2.279,2.279,0,0,1,1.82-.06,2.581,2.581,0,0,1,1.625,1.969,2.409,2.409,0,0,1,2.341-.373,2.1,2.1,0,0,1,.871.588,2.372,2.372,0,0,1-.166,3.217,2.016,2.016,0,0,1,.8.131,2.729,2.729,0,0,1,1.665,2.237,3.873,3.873,0,0,1-1.605,3.241,3.455,3.455,0,0,1,1.663,3.439,3.5,3.5,0,0,1-2.608,2.769l.029.024a1.369,1.369,0,0,1,.819.9,2.455,2.455,0,0,1-.216,1.984,5.333,5.333,0,0,1-1.979,1.584l.182.055.1.176a4.044,4.044,0,0,1,.282.674l.01.041v.038a2.246,2.246,0,0,1-.347,1.176l-.016.044a3.68,3.68,0,0,1-5.721,1.16c-.138.645-.949.889-1.639.836a4.792,4.792,0,0,1-1.346-.3,5.06,5.06,0,0,1-1.893-1.246l-.345-.368.386-.326a8.729,8.729,0,0,0,1.834-2.08l.186-.3.336.086A3.589,3.589,0,0,0,102,96.662,2.6,2.6,0,0,0,103.286,94a2.136,2.136,0,0,0-.921-1.341,2.16,2.16,0,0,0-.425-.221l-.59-.219.377-.506a8.628,8.628,0,0,0,1.222-7.573,9.738,9.738,0,0,0-5.818-6.029l-.045-.017a11.039,11.039,0,0,0-8.4.407,10.1,10.1,0,0,0-5.789,6.983l-.064.343-.343.038a2.794,2.794,0,0,0-1.729.84,2.39,2.39,0,0,0-.382,2.707,2.036,2.036,0,0,0,1.1.927,2.117,2.117,0,0,0,.773.134l.575-.015-.1.571a8.633,8.633,0,0,0,.045,3.194l.071.355-.324.158A5.755,5.755,0,0,1,78.021,94.985Z" transform="translate(-52.938 -51.652)" fill="#04004a"/>
    <path id="Path_61" data-name="Path 61" d="M68.155,88.811a2.451,2.451,0,0,1-1.887-.677,1.4,1.4,0,0,1-.309-1.1.925.925,0,0,1,.451-.688,4.794,4.794,0,0,1-.724.071,2.04,2.04,0,0,1-1.947-1.151A2.185,2.185,0,0,1,64,83.007a2.731,2.731,0,0,1-2.137-4.167,4.2,4.2,0,0,1,1.484-1.353l.107-.024.107.024v-.012a2.494,2.494,0,0,1-1.508-1.4,3.551,3.551,0,0,1,.012-2.849,6.446,6.446,0,0,1,3.941-3.051A2.881,2.881,0,0,1,65.4,67a2.838,2.838,0,0,1,2.552-1.626,1.413,1.413,0,0,1,.225.012,2.1,2.1,0,0,1,1.745-3.324,2.045,2.045,0,0,1,1.045.273,2.757,2.757,0,0,1,1.721-2.968,2.592,2.592,0,0,1,.855-.142,2.748,2.748,0,0,1,2.363,1.329,2.7,2.7,0,0,1,2.445-1.994h.083a2.67,2.67,0,0,1,2.493,1.816,1.945,1.945,0,0,1,1.591-.8,1.839,1.839,0,0,1,.914.237,1.935,1.935,0,0,1,.7,2.457,2.279,2.279,0,0,1,1.686-.688,2.581,2.581,0,0,1,2.208,1.282,2.409,2.409,0,0,1,2.066-1.163,2.1,2.1,0,0,1,1.021.249,2.372,2.372,0,0,1,.962,3.075,2.015,2.015,0,0,1,.8-.154,2.729,2.729,0,0,1,2.339,1.52,3.873,3.873,0,0,1-.38,3.6,3.455,3.455,0,0,1,2.754,2.647,3.5,3.5,0,0,1-1.484,3.5l.036.012a1.369,1.369,0,0,1,1.08.558A2.456,2.456,0,0,1,97.7,78.65,5.333,5.333,0,0,1,96.4,80.822l.19-.012.154.131a4.042,4.042,0,0,1,.5.534l.024.035.012.036a2.246,2.246,0,0,1,.083,1.223v.047A3.68,3.68,0,0,1,92.4,85.891c.1.653-.582,1.163-1.246,1.353a4.792,4.792,0,0,1-1.365.19,5.06,5.06,0,0,1-2.208-.511l-.451-.225.249-.44a8.729,8.729,0,0,0,1-2.588l.071-.345.345-.036a3.589,3.589,0,0,0,2.434-1.234,2.6,2.6,0,0,0,.285-2.944,2.136,2.136,0,0,0-1.329-.938,2.161,2.161,0,0,0-.475-.059h-.629l.178-.606a8.628,8.628,0,0,0-1.484-7.526,9.738,9.738,0,0,0-7.55-3.633h-.048a11.038,11.038,0,0,0-7.74,3.3,10.1,10.1,0,0,0-3,8.559l.059.344-.308.154a2.794,2.794,0,0,0-1.33,1.389,2.39,2.39,0,0,0,.582,2.671,2.035,2.035,0,0,0,1.353.487,2.117,2.117,0,0,0,.772-.143l.534-.213.107.569a8.633,8.633,0,0,0,1.151,2.98l.19.309-.249.261A5.755,5.755,0,0,1,68.155,88.811Z" transform="translate(-45.079 -45.408)" fill="#04004a"/>
    <path id="Path_62" data-name="Path 62" d="M77.189,99.86a2.451,2.451,0,0,1-1.887-.677,1.4,1.4,0,0,1-.309-1.1.925.925,0,0,1,.451-.688,4.8,4.8,0,0,1-.724.071,2.04,2.04,0,0,1-1.947-1.151,2.185,2.185,0,0,1,.261-2.255A2.731,2.731,0,0,1,70.9,89.889a4.2,4.2,0,0,1,1.484-1.353l.107-.024.107.024v-.012a2.494,2.494,0,0,1-1.508-1.4,3.551,3.551,0,0,1,.012-2.849,6.446,6.446,0,0,1,3.941-3.051,2.881,2.881,0,0,1-.605-3.169,2.838,2.838,0,0,1,2.552-1.626,1.411,1.411,0,0,1,.225.012,2.1,2.1,0,0,1,1.745-3.324A2.045,2.045,0,0,1,80,73.388a2.757,2.757,0,0,1,1.721-2.968,2.593,2.593,0,0,1,.855-.142,2.748,2.748,0,0,1,2.363,1.329,2.7,2.7,0,0,1,2.445-1.994h.083a2.67,2.67,0,0,1,2.493,1.816,1.945,1.945,0,0,1,1.591-.8,1.839,1.839,0,0,1,.914.237,1.935,1.935,0,0,1,.7,2.457,2.279,2.279,0,0,1,1.686-.688,2.581,2.581,0,0,1,2.208,1.282,2.409,2.409,0,0,1,2.066-1.163,2.1,2.1,0,0,1,1.021.249,2.372,2.372,0,0,1,.962,3.075,2.016,2.016,0,0,1,.8-.154,2.729,2.729,0,0,1,2.339,1.52,3.873,3.873,0,0,1-.38,3.6,3.455,3.455,0,0,1,2.754,2.647,3.5,3.5,0,0,1-1.484,3.5l.036.012a1.369,1.369,0,0,1,1.08.558,2.456,2.456,0,0,1,.486,1.935,5.332,5.332,0,0,1-1.306,2.173l.19-.012.154.131a4.039,4.039,0,0,1,.5.534l.024.035.012.036a2.246,2.246,0,0,1,.083,1.223v.047a3.68,3.68,0,0,1-4.962,3.075c.1.653-.581,1.163-1.246,1.353a4.792,4.792,0,0,1-1.365.19,5.06,5.06,0,0,1-2.208-.511l-.451-.225.249-.44a8.729,8.729,0,0,0,1-2.588l.071-.345.345-.036a3.589,3.589,0,0,0,2.434-1.234,2.6,2.6,0,0,0,.285-2.944,2.136,2.136,0,0,0-1.329-.938,2.16,2.16,0,0,0-.475-.059h-.629l.178-.606A8.628,8.628,0,0,0,96.8,81.033a9.738,9.738,0,0,0-7.55-3.633H89.2a11.038,11.038,0,0,0-7.74,3.3,10.1,10.1,0,0,0-3,8.559l.059.344-.308.154a2.794,2.794,0,0,0-1.33,1.389,2.39,2.39,0,0,0,.582,2.671,2.036,2.036,0,0,0,1.353.487,2.117,2.117,0,0,0,.772-.143l.534-.213.107.569A8.633,8.633,0,0,0,81.38,97.5l.19.309-.249.261A5.755,5.755,0,0,1,77.189,99.86Z" transform="translate(-50.509 -52.049)" fill="#04004a"/>
    <path id="Path_63" data-name="Path 63" d="M214.949,120.747c-1.683,1.194-3.75,1.172-4.616-.05s-.2-3.179,1.48-4.372,2.482-1.61,3.348-.389c.32.451,1.9,1.708,1.833,2.285A4.153,4.153,0,0,1,214.949,120.747Z" transform="translate(-134.343 -79.452)" fill="#e3b5b1"/>
    <path id="Path_64" data-name="Path 64" d="M212.395,138.852l3.656-6.693-13.71-6.585-1.726,8.96Z" transform="translate(-128.73 -85.688)" fill="#ffb5b1"/>
    <path id="Path_65" data-name="Path 65" d="M135.971,159.713s18.183,5.411,22.851,2.077c2.921-2.086,3.413-13.948,3.413-13.948l10.535,4.006s-2.2,19.2-7.122,22.406c-4.878,3.177-23.148-2.522-23.148-2.522Z" transform="translate(-89.873 -99.073)" fill="url(#linear-gradient)"/>
    <path id="Path_66" data-name="Path 66" d="M96.59,159.773l2.036-10.747,11.126-.633,1.166,10.263Z" transform="translate(-66.201 -99.404)" fill="#ffbbb3"/>
    <path id="Path_67" data-name="Path 67" d="M80.841,174.8s15.36-.993,20.477-.742c1.383.068,4.222.184,5.49.742,2.122.934,6.015,3.9,7.122,5.935,3.106,5.712,2.991,26.774,2.991,26.774H80.841Z" transform="translate(-56.601 -114.808)" fill="#24266f"/>
    <path id="Path_68" data-name="Path 68" d="M100.032,151.4l11.715-3,.3,2.268L99.91,152.683Z" transform="translate(-68.196 -99.404)" fill="#e1aca6"/>
    <rect id="Rectangle_56" data-name="Rectangle 56" width="30.637" height="7.724" transform="translate(62.908 33.34) rotate(20.27)" fill="url(#linear-gradient-2)"/>
    <path id="Path_69" data-name="Path 69" d="M83.062,113.193l-3.389,5.953,4.411-.454Z" transform="translate(-56.032 -78.245)" fill="#ffbbb3"/>
    <path id="Path_70" data-name="Path 70" d="M105.854,99.643l5.241-9.891,2.8-13.188-5.067-6.182L98.341,68.527,89.78,70.588,86.21,81.673s-.969,10.694-.8,14.261c.109,2.251,1.139,7.421,3.145,8.449C92.548,106.427,105.854,99.643,105.854,99.643Z" transform="translate(-59.469 -51.396)" fill="#ffbbb3"/>
    <circle id="Ellipse_22" data-name="Ellipse 22" cx="19.228" cy="19.228" r="19.228" transform="translate(26.854 10.362)" fill="url(#linear-gradient-3)"/>
    <circle id="Ellipse_23" data-name="Ellipse 23" cx="15.107" cy="15.107" r="15.107" transform="translate(31.093 15.005)" fill="#fff"/>
    <path id="Path_71" data-name="Path 71" d="M113.191,131.85a8.677,8.677,0,0,0,2.744,1.681,24.168,24.168,0,0,0,7.384,1.4,12.748,12.748,0,0,0,3.823-.869c.582-.184,3.767-1.913,3.767-1.913s-6.768,1.017-9.042.993A80.519,80.519,0,0,1,113.191,131.85Z" transform="translate(-76.179 -89.46)" fill="#ffb5b1"/>
    <circle id="Ellipse_24" data-name="Ellipse 24" cx="6.979" cy="6.979" r="6.979" transform="translate(44.278 24.733)" fill="url(#linear-gradient-4)"/>
    <ellipse id="Ellipse_25" data-name="Ellipse 25" cx="1.965" cy="1.965" rx="1.965" ry="1.965" transform="translate(47.333 26.732)" fill="#fff"/>
    <circle id="Ellipse_26" data-name="Ellipse 26" cx="3.388" cy="3.388" r="3.388" transform="translate(49.637 32.288)" fill="#fff"/>
    <path id="Path_72" data-name="Path 72" d="M54.077,208.7s-1.185-14.374,0-19.491c.847-3.656,4.953-10.581,8.088-12.645.983-.648,4.648-.764,4.648-.764l-1.68,21.148V208.7Z" transform="translate(-40.295 -115.879)" fill="url(#linear-gradient-4)"/>
    <path id="Path_73" data-name="Path 73" d="M113.717,66.21a8.677,8.677,0,0,1,2.744-1.681,24.167,24.167,0,0,1,7.384-1.4,12.749,12.749,0,0,1,3.823.869c.582.184,3.767,1.913,3.767,1.913s-6.768-1.017-9.042-.993A80.52,80.52,0,0,0,113.717,66.21Z" transform="translate(-76.496 -48.15)" fill="#ffb5b1"/>
    <circle id="Ellipse_27" data-name="Ellipse 27" cx="3.388" cy="3.388" r="3.388" transform="translate(52.578 22.883)" fill="#fff" opacity="0.4"/>
    <ellipse id="Ellipse_28" data-name="Ellipse 28" cx="2.549" cy="3.297" rx="2.549" ry="3.297" transform="translate(67.918 45.74) rotate(-63.525)" fill="#ffb5b1"/>
    <path id="Path_74" data-name="Path 74" d="M211.9,116.459c-1.252,1.64-3.232,2.234-4.422,1.325s-1.14-2.974.112-4.615,1.891-2.275,3.081-1.367c.44.336,2.326,1.064,2.429,1.636A4.153,4.153,0,0,1,211.9,116.459Z" transform="translate(-132.339 -77.16)" fill="#ffb5b1"/>
    <path id="Path_75" data-name="Path 75" d="M225.045,121.672c-1.037,1.358-2.676,1.849-3.661,1.1s-.944-2.463.093-3.821,1.565-1.884,2.551-1.132c.364.278,1.926.881,2.011,1.355A3.439,3.439,0,0,1,225.045,121.672Z" transform="translate(-140.787 -80.818)" fill="#ffb5b1"/>
    <path id="Path_76" data-name="Path 76" d="M235.155,126c-1.037,1.358-2.676,1.849-3.661,1.1s-.944-2.463.093-3.821,1.565-1.884,2.551-1.132c.364.278,1.926.881,2.011,1.355A3.439,3.439,0,0,1,235.155,126Z" transform="translate(-146.864 -83.417)" fill="#ffb5b1"/>
    <path id="Path_78" data-name="Path 78" d="M32.076,147.946l6.034,5.533L40.391,141.5Z" transform="translate(-27.421 -95.261)" fill="#bf266f"/>
    <path id="Path_80" data-name="Path 80" d="M35.964,100.525l3.658-2.789-6.4-2.448Z" transform="translate(-33.224 -79.981)" fill="#bf266f"/>
    <circle id="Ellipse_29" data-name="Ellipse 29" cx="3.024" cy="3.024" r="3.024" transform="translate(11.239 4.429)" fill="#bf266f"/>
    <ellipse id="Ellipse_31" data-name="Ellipse 31" cx="2.346" cy="2.346" rx="2.346" ry="2.346" transform="translate(2.087 32.801)" fill="#60cd6f"/>
  </g>
</svg>
