<svg id="ece38c8f-4d3b-4b22-a7ee-05449e43c2c5" xmlns="http://www.w3.org/2000/svg" viewBox="0 0 131 32">
  <path id="Path_229" data-name="Path 229" d="M96.62,33.152H93V30.92h9.876v2.232h-3.62V39.3H96.62Z" transform="translate(-52.263 -17.193)" fill="#222220"/>
  <path id="Path_230" data-name="Path 230" d="M126.791,30.92V39.3h-2.548V34.417L119.849,39.3H117.6V30.955h2.548v4.833l4.393-4.868Z" transform="translate(-66.087 -17.193)" fill="#222220"/>
  <path id="Path_231" data-name="Path 231" d="M145.258,39.347H142.71V31h2.548v3.075h4.094V31H151.9v8.347h-2.548V36.219h-4.094Z" transform="translate(-80.198 -17.238)" fill="#222220"/>
  <path id="Path_232" data-name="Path 232" d="M167.82,39.347V31h2.548v2.2H173a5.43,5.43,0,0,1,1.863.228,2.82,2.82,0,0,1,1.915,2.794,2.886,2.886,0,0,1-2.2,2.9,5.777,5.777,0,0,1-1.6.193Zm2.548-2.021h2.2a2.4,2.4,0,0,0,1-.123,1.05,1.05,0,0,0,.65-.984.936.936,0,0,0-.668-.914,2.97,2.97,0,0,0-.984-.105h-2.2Z" transform="translate(-94.308 -17.238)" fill="#222220"/>
  <path id="Path_233" data-name="Path 233" d="M193.388,39.347H190.84V31h2.548v3.146h.7L197.166,31h3.2l-4.077,3.954,4.235,4.393h-3.392l-3.04-3.163h-.7Z" transform="translate(-107.246 -17.238)" fill="#222220"/>
  <path id="Path_234" data-name="Path 234" d="M223.428,34.828c0,2.5-2.056,4.428-5.465,4.428s-5.483-1.933-5.483-4.428,2.056-4.428,5.5-4.428S223.428,32.333,223.428,34.828Zm-2.671,0c0-1.371-1.107-2.372-2.794-2.372s-2.794,1-2.794,2.372,1.09,2.39,2.794,2.39S220.757,36.2,220.757,34.828Z" transform="translate(-119.41 -16.901)" fill="#222220"/>
  <path id="Path_235" data-name="Path 235" d="M251.863,34.5c0,2.39-1.915,3.638-5.131,3.708v.843h-2.548V38.2c-3.2-.07-5.114-1.318-5.114-3.708s1.915-3.743,5.114-3.813V29.84h2.548v.843C249.952,30.754,251.863,32.107,251.863,34.5Zm-7.679-2c-1.757.07-2.53.879-2.53,2s.773,1.845,2.53,1.915Zm5.079,2c0-1.125-.756-1.933-2.53-2v3.919c1.779-.07,2.535-.791,2.535-1.915Z" transform="translate(-134.398 -16.588)" fill="#222220"/>
  <path id="Path_236" data-name="Path 236" d="M282.673,34.5c0,2.39-1.915,3.638-5.131,3.708v.843h-2.548V38.2c-3.2-.07-5.114-1.318-5.114-3.708s1.915-3.743,5.114-3.813V29.84h2.548v.843C280.758,30.754,282.673,32.107,282.673,34.5Zm-7.679-2c-1.757.07-2.53.879-2.53,2s.773,1.845,2.53,1.915Zm5.079,2c0-1.125-.756-1.933-2.53-2v3.919c1.775-.07,2.526-.791,2.526-1.915Z" transform="translate(-151.673 -16.588)" fill="#222220"/>
  <path id="Path_237" data-name="Path 237" d="M35.115,14.977l.47-1.488-1.529.049a3.58,3.58,0,0,1-1.986-.7h.206a2.458,2.458,0,0,0,2.2-1.381l.672-1.448a11.745,11.745,0,0,1-1.577-.093,2.444,2.444,0,0,1-1.287-.784,2.425,2.425,0,0,0-1.757-.775,2.521,2.521,0,0,0-.769.124,2.869,2.869,0,0,0,.088-.363A3.317,3.317,0,0,0,29.175,5.7l-1.16-1.439L27.3,5.941a1.5,1.5,0,0,1-.505.6,3.133,3.133,0,0,0-.843-1.585A3.777,3.777,0,0,0,23.214,3.8a3.4,3.4,0,0,0-.536.04l-1.388.274a4.832,4.832,0,0,1,.562-1.328l.764-1.2-1.924.182L20.077.443l-1.186.651L17.792,0l-1.1,1.094L15.508.474l-.615,1.3L12.969,1.55l.764,1.2A4.77,4.77,0,0,1,14.3,4.082l-1.318-.261h-.044a3.488,3.488,0,0,0-.554-.04A3.772,3.772,0,0,0,9.639,4.932a3.138,3.138,0,0,0-.852,1.607,1.48,1.48,0,0,1-.5-.58l-.716-1.7L6.405,5.707A3.339,3.339,0,0,0,5.751,8.12a3,3,0,0,0,.088.363,2.491,2.491,0,0,0-.769-.124,2.425,2.425,0,0,0-1.757.775,2.483,2.483,0,0,1-1.274.784,8.907,8.907,0,0,1-1.6.093l.655,1.47a2.463,2.463,0,0,0,2.2,1.381H3.5a3.585,3.585,0,0,1-1.959.7L0,13.49l.47,1.488a3.082,3.082,0,0,0,2.548,2.174A2.46,2.46,0,0,1,1.7,18.966l-1.177.483.633,1.111a2.8,2.8,0,0,0,2.386,1.3,3.615,3.615,0,0,0,.747-.08q.094.406.228.8a2.769,2.769,0,0,1,.044,1.815L3.989,25.6l1.278.341a3.572,3.572,0,0,0,.879.111,2.673,2.673,0,0,0,.624-.071,2.831,2.831,0,0,0,.439-.137,3.916,3.916,0,0,0,.6.815,4.591,4.591,0,0,0,3.449,1.275h1.05l-2.166.908,1.643.819a21.662,21.662,0,0,0,2.03.885l-.2.576.567.261A8.837,8.837,0,0,0,17.133,32h1.349a8.824,8.824,0,0,0,2.935-.62l.549-.257-.193-.576a21.881,21.881,0,0,0,2.052-.916l1.612-.788-2.161-.885h1.054a4.636,4.636,0,0,0,3.449-1.275,3.881,3.881,0,0,0,.6-.815,2.953,2.953,0,0,0,.439.137,2.7,2.7,0,0,0,.624.071,3.624,3.624,0,0,0,.879-.111l1.283-.341-.558-1.186a2.747,2.747,0,0,1,.022-1.859,7.826,7.826,0,0,0,.228-.819,3.654,3.654,0,0,0,.751.08,2.78,2.78,0,0,0,2.39-1.328l.624-1.1-1.16-.478a2.451,2.451,0,0,1-1.318-1.815,3.082,3.082,0,0,0,2.548-2.178M14.4,4.626Z" fill="#fff"/>
  <path id="Path_238" data-name="Path 238" d="M37.506,10.3c-1.226,0-2.148.4-2.346.879l2.346.927,2.346-.927c-.2-.474-1.12-.879-2.346-.879" transform="translate(-19.714 -5.775)" fill="#fff"/>
  <path id="Path_239" data-name="Path 239" d="M36.882,65.75h-.048a9.608,9.608,0,0,1-2.262-.29L34,67.064a10.338,10.338,0,0,0,5.755,0l-.615-1.6a9.634,9.634,0,0,1-2.262.29" transform="translate(-19.063 -36.456)" fill="#fff"/>
  <path id="Path_240" data-name="Path 240" d="M48.223,62.49a13.044,13.044,0,0,1-2,.8l.483,1.318a12.011,12.011,0,0,0,2.223-.83l-1-.334Z" transform="translate(-25.915 -34.791)" fill="#fff"/>
  <path id="Path_241" data-name="Path 241" d="M29.317,62.49l.294.967-1,.334a12.064,12.064,0,0,0,2.223.83l.483-1.318a13.071,13.071,0,0,1-2-.8" transform="translate(-16.041 -34.791)" fill="#fff"/>
  <path id="Path_242" data-name="Path 242" d="M36.928,4.9a5.311,5.311,0,0,1,2.53.611,6.243,6.243,0,0,1,.272-.747l-.264.031-.277.031-.119-.25-.351-.747-.641.334-.25.127-.2-.185-.7-.7-.7.7-.2.2-.25-.127-.646-.334-.347.747-.119.25-.277-.031-.264-.031a6.435,6.435,0,0,1,.272.747A5.32,5.32,0,0,1,36.928,4.9" transform="translate(-19.136 -1.906)" fill="#fff"/>
  <path id="Path_243" data-name="Path 243" d="M69.83,23.59a1.1,1.1,0,0,0,.365.062,1.379,1.379,0,0,0,1.2-.725,3.387,3.387,0,0,1-1.99-1.107,1.318,1.318,0,0,0-.975-.439,1.546,1.546,0,0,0-.813.246c1.248.663,1.5,1.727,2.2,1.968" transform="translate(-37.996 -11.909)" fill="#fff"/>
  <path id="Path_244" data-name="Path 244" d="M5.994,23.646a1.076,1.076,0,0,0,.36-.062c.712-.242.967-1.318,2.2-1.968a1.546,1.546,0,0,0-.808-.246,1.318,1.318,0,0,0-.975.439A3.387,3.387,0,0,1,4.79,22.921a1.375,1.375,0,0,0,1.2.725" transform="translate(-2.686 -11.903)" fill="#fff"/>
  <path id="Path_245" data-name="Path 245" d="M59.756,22.267h.062a2,2,0,0,0,1.757-1.413h-.026a4.714,4.714,0,0,1-3.563-1.813c-.9-1.16-1.643-2.181-3.106-2.581l-.141-.036-.031-.147c-.04-.227.114-.444.439-.666a2,2,0,0,0,.646-3.039,2.207,2.207,0,0,1-1.845,1.36h-.088a2.694,2.694,0,0,1-.439-.044l-.237-.044a1.952,1.952,0,0,0-.518-1.942,2.669,2.669,0,0,0-1.951-.822,2.108,2.108,0,0,0-.387.031c.439.591.769,1.568.255,2.168-.439.52-1.533.542-1.533,1.333,0,.329.3.711.843,1.053a9.17,9.17,0,0,1,3.928,4.27,3.66,3.66,0,0,1-1.463,4.714,1.9,1.9,0,0,0,1.041.444h.36a3.052,3.052,0,0,0,1.973-.618,3.486,3.486,0,0,1-.786,1.644A3.344,3.344,0,0,1,52.253,27.3a1.468,1.468,0,0,0,.514,1.093,2.705,2.705,0,0,0,1.173.444s-1.533.315-1.7,2.6a3.537,3.537,0,0,1-.4,1.67h.026c3.554,0,3.462-3.083,3.462-3.083a1.73,1.73,0,0,0,1.239,1.151,1.464,1.464,0,0,0,.369.044,2.539,2.539,0,0,0,.6-.076,3.816,3.816,0,0,1,0-2.666,6.356,6.356,0,0,0,.36-2.221,1.989,1.989,0,0,0,1.683.72h0a1.664,1.664,0,0,0,1.419-.76c-2.368-1-2.135-4.207-2.135-4.207a1.69,1.69,0,0,0,.909.253m-.712,3.354A4.281,4.281,0,0,1,57.331,23.4a9.911,9.911,0,0,1-2.807,5.976,5.425,5.425,0,0,0-1,1.728,4.02,4.02,0,0,1,.778-1.737A10.383,10.383,0,0,0,56.993,23.4,7.172,7.172,0,0,0,56,19.37a3.658,3.658,0,0,1-.914,3.812s2.438-2.959-.971-5.989a28.419,28.419,0,0,0-3.629-2.372c2.776.915,4.134-.093,4.134-.093a3.345,3.345,0,0,1-2.75.653c.193.093.4.2.611.311a8.666,8.666,0,0,1,4.806,6.335V22c.545,2.879,1.757,3.616,1.757,3.616" transform="translate(-27.566 -6.212)" fill="#fff"/>
  <path id="Path_246" data-name="Path 246" d="M11.075,28.8a2.705,2.705,0,0,0,1.173-.444,1.468,1.468,0,0,0,.514-1.093,3.357,3.357,0,0,1-2.7-1.177,3.509,3.509,0,0,1-.782-1.644,3.052,3.052,0,0,0,1.973.618h.365a1.9,1.9,0,0,0,1.041-.444A3.665,3.665,0,0,1,11.2,19.9a9.193,9.193,0,0,1,3.928-4.27c.54-.338.861-.72.861-1.049,0-.773-1.085-.8-1.529-1.333a1.843,1.843,0,0,1,.25-2.168,2.1,2.1,0,0,0-.387-.031,2.669,2.669,0,0,0-1.951.822,1.952,1.952,0,0,0-.518,1.942l-.259.058a2.79,2.79,0,0,1-.439.044h-.092A2.249,2.249,0,0,1,9.2,12.551a2.01,2.01,0,0,0,.641,3.043c.347.227.5.444.439.666l-.031.147-.145.027c-1.459.4-2.2,1.422-3.106,2.581A4.71,4.71,0,0,1,3.44,20.837h.009A2,2,0,0,0,5.206,22.25h.062A1.7,1.7,0,0,0,6.177,22S6.41,25.209,4.042,26.2a1.664,1.664,0,0,0,1.4.755h0a1.989,1.989,0,0,0,1.665-.738,6.374,6.374,0,0,0,.356,2.221,3.83,3.83,0,0,1,0,2.666,2.53,2.53,0,0,0,.593.076,1.443,1.443,0,0,0,.369-.044A1.734,1.734,0,0,0,9.665,29.99s-.092,3.083,3.466,3.083h.026a3.555,3.555,0,0,1-.4-1.671c-.145-2.279-1.678-2.6-1.678-2.6m-.571.56a10.04,10.04,0,0,1-2.812-5.976A4.286,4.286,0,0,1,5.975,25.6s1.213-.738,1.757-3.616v.022a8.664,8.664,0,0,1,4.811-6.335c.215-.12.417-.218.611-.311a3.345,3.345,0,0,1-2.746-.653s1.357,1.009,4.134.093a28.125,28.125,0,0,0-3.624,2.372c-3.414,3.03-.971,5.989-.971,5.989a3.654,3.654,0,0,1-.914-3.812,7.122,7.122,0,0,0-.993,4.03,10.384,10.384,0,0,0,2.675,5.962A4.02,4.02,0,0,1,11.5,31.1a5.479,5.479,0,0,0-1-1.728" transform="translate(-1.929 -6.195)" fill="#fff"/>
  <path id="Path_247" data-name="Path 247" d="M33.242,23.6c.057.062.114.132.171.2l.04.048.154.215.035.048c.057.088.114.185.171.281a2.588,2.588,0,0,0,2.06,1.415,2.592,2.592,0,0,0,2.06-1.415c.057-.1.114-.193.176-.281l.026-.04.158-.224.035-.044a2.636,2.636,0,0,1,.176-.2l.031-.026a2.126,2.126,0,0,1,.98-.584l-.189-.114h0l-.72-.439L37.863,22l-1.981,1.076h0l-1.99-1.037-.742.439-.725.439h0l-.185.105a2.122,2.122,0,0,1,.98.584l.031.031m1.828-.088h1.674v.576a.707.707,0,0,0-.58-.193v.83a1.256,1.256,0,0,0,.158.584h-.839a1.234,1.234,0,0,0,.158-.619V23.9a.707.707,0,0,0-.58.193Z" transform="translate(-18.076 -12.25)" fill="#fff"/>
  <path id="Path_248" data-name="Path 248" d="M37.374,17.69V14.325L35.23,13.6l.567,3.251Zm-.439-2.539v.54l-.105-.048a1.318,1.318,0,0,1-.439-.25.975.975,0,0,1-.439-.655Z" transform="translate(-19.753 -7.572)" fill="#fff"/>
  <path id="Path_249" data-name="Path 249" d="M42.467,16.84l.562-3.26L40.89,14.3V17.67Zm-1.116-1.709.975-.409a.975.975,0,0,1-.439.655,1.318,1.318,0,0,1-.439.25l-.105.048Z" transform="translate(-22.926 -7.561)" fill="#fff"/>
  <path id="Path_250" data-name="Path 250" d="M32.549,39.184a1.889,1.889,0,0,0,.593.092v-.062a1.191,1.191,0,0,0,.031-.119,3.383,3.383,0,0,0,.053-.532.751.751,0,0,1-.281-.3.373.373,0,0,0-.36-.246,1.169,1.169,0,0,0-.545.189.958.958,0,0,0,.5.971" transform="translate(-17.959 -21.182)" fill="#fff"/>
  <path id="Path_251" data-name="Path 251" d="M39.15,36.61c-.4.439-1.177,1.186-1.213,1.226l-.048.048-2.46-.04a2.53,2.53,0,0,1-.079.6v.079l2.921.523c.3-.211,1.142-.826,1.467-1.063a1.428,1.428,0,0,1-.206-1.046,1.472,1.472,0,0,1-.369-.329" transform="translate(-19.82 -20.392)" fill="#fff"/>
  <path id="Path_252" data-name="Path 252" d="M41.662,29.87a2.592,2.592,0,0,1-1.595.817,2.636,2.636,0,0,1-.268,0h0a2.636,2.636,0,0,1-.268,0,1.973,1.973,0,0,1-.264-.04,1,1,0,0,0,.044.641,1.019,1.019,0,0,0,.615.51l.1.04v.11a1.024,1.024,0,0,0,.8.949c.127-.132.242-.25.329-.351a.808.808,0,0,1,.167-.945,1.318,1.318,0,0,0,.641,1.318l.123.057-.035.132a1.037,1.037,0,0,0,.65,1.287l.163.062-.07.158a1.019,1.019,0,0,0,.47,1.318H45.1v-1.45a1.16,1.16,0,0,1-1-.971,1.059,1.059,0,0,1-.694-.4.879.879,0,0,1-.048-.993,1.252,1.252,0,0,0,.3.8.945.945,0,0,0,.6.286h.132v.136a.879.879,0,0,0,.694.8V31.219a3.884,3.884,0,0,1,.294-1.349Z" transform="translate(-21.998 -16.622)" fill="#fff"/>
  <path id="Path_253" data-name="Path 253" d="M33.5,32.388l-.053,1.889.215.031.527-1.81-.268-.558Z" transform="translate(-18.755 -17.791)" fill="#fff"/>
  <path id="Path_254" data-name="Path 254" d="M39.144,49.229H39.2c.325.092.409,1.27.98,1.375a.747.747,0,0,0,.154,0,.439.439,0,0,0,.369-.2s-.29-.439-.505-.76c-.286-.4-.51-.879-1.041-.879h-.04a.536.536,0,0,0-.286.1,1.1,1.1,0,0,0-.6-.18,4.161,4.161,0,0,0-.725.154h0l-1.191-.119a.633.633,0,0,1-.387-.277v-.127a1.4,1.4,0,0,0-1.063-1.4s.031-.185-.04-.255l-.264.316-.879-.439.615.716-.518.584a.163.163,0,0,0-.031.193l.224.2.286-.171a.132.132,0,0,1,.07,0h.3c.105,0,.215-.026.228-.132-.035.36-.369.988-.149,1.481l.158.409-1.05-.149-.492.83a.668.668,0,0,0-.031.738l.185.228a1.757,1.757,0,0,0,.316-.439l-.083-.092a.176.176,0,0,1-.022-.228L34,50.191l1.243.294.066-.11a.365.365,0,0,1,.338-.18,1.1,1.1,0,0,1,.171,0,5.355,5.355,0,0,0,.988.105,1.415,1.415,0,0,0,1.05-.321c.439.668,1.362.773,1.287,1.111L38.9,52.234a1.544,1.544,0,0,0,.439-.04l.228-1.186c.026-.127.048-.3.048-.3a2.2,2.2,0,0,1-.439-.505c-.163-.308-.075-.47-.224-.879a.176.176,0,0,1,.149-.092m-4.648-1.669a.108.108,0,1,1,.013-.215.108.108,0,0,1,0,.215" transform="translate(-18.615 -25.901)" fill="#fff"/>
  <path id="Path_255" data-name="Path 255" d="M32.119,53.371s.413-.171.439-.29l-.053-.136a.185.185,0,0,1,.044-.237l.439-.308.742.141a.628.628,0,0,1-.123-.391L32.914,52l-.668.409a.65.65,0,0,0-.211.773Z" transform="translate(-17.933 -28.97)" fill="#fff"/>
  <path id="Path_256" data-name="Path 256" d="M44.24,57.5h.439s.382-1.116.4-1.151a9.35,9.35,0,0,1-.83-.439c.114.171.391.365.334.514Z" transform="translate(-24.805 -31.147)" fill="#fff"/>
  <path id="Path_257" data-name="Path 257" d="M39.064,44.45H28.52V48.4a2.609,2.609,0,0,0,2.908,2.636c1.45,0,1.832.057,2.368.593a1.757,1.757,0,0,1,1.318-.562v-.062l.334-1.028-.567-.619a2.039,2.039,0,0,1-.7.083,5.743,5.743,0,0,1-1.054-.11h-.11c-.048,0-.048,0-.062.026l-.066.11-.119.2-.228-.053-1.015-.237-.141.228v.026l.123.136-.053.176a1.828,1.828,0,0,1-.391.576l-.255.272-.233-.29-.171-.215a.879.879,0,0,1-.123-.843h0L30,49.564l-.127-.281-.07-.2a.967.967,0,0,1,.321-1.164l.817-.439.778.154a2.481,2.481,0,0,1,.07-.409H31.74l-.439.167-.439-.3a.228.228,0,0,1,0-.325l.417-.633L30.22,44.819l1.586.624.11-.132.22-.264.25.237a.474.474,0,0,1,.132.237,2.016,2.016,0,0,1,1.318,1.524l-.25.1h0a.308.308,0,0,0,.119.1l1.16.114.105-.031a1.876,1.876,0,0,1,.619-.119,1.419,1.419,0,0,1,.606.141.914.914,0,0,1,.264-.053h.057a1.437,1.437,0,0,1,1.177.835l.127.185c.215.308.5.756.514.773l.127.2-.158.185a.773.773,0,0,1-.615.3,1.128,1.128,0,0,1-.211,0,.914.914,0,0,1-.185-.057.4.4,0,0,1-.035.2l-.18,1.037a2.482,2.482,0,0,0,1.99-2.535Z" transform="translate(-15.991 -24.727)" fill="#fce527"/>
  <path id="Path_258" data-name="Path 258" d="M28.114,35.955h8.211a1.318,1.318,0,0,1-.3-1.318,1.366,1.366,0,0,1-.308-.2c-.321.237-1.318.949-1.555,1.129l-.053.035-3.225-.571h-.066a2.69,2.69,0,0,1-.316,0,.312.312,0,0,1-.3.246h-.053a.321.321,0,0,1-.264-.365v-.07a1.287,1.287,0,0,1-.505-1.318v-.057l.048-.035s.062-.044.145-.092L29.34,33.3a.163.163,0,0,1-.132-.185.158.158,0,0,1,.185-.132l.558.088L30,31.109l.83-.879.518,1.09-.545,1.889.492.079a.163.163,0,0,1,.132.185.158.158,0,0,1-.158.132h-.026l-.4-.066v.031a.439.439,0,0,0,.193.18l2.456.04.628-.619a1.318,1.318,0,0,1-.879-1.094,1.287,1.287,0,0,1-.7-.641,1.318,1.318,0,0,1-.057-.879,2.869,2.869,0,0,1-1.024-.685H27.82a3.954,3.954,0,0,1,.294,1.349Z" transform="translate(-15.598 -16.622)" fill="#fce527"/>
  <path id="Path_259" data-name="Path 259" d="M36.034,48.37a.108.108,0,1,0-.013.215.108.108,0,1,0,0-.215" transform="translate(-20.139 -26.954)" fill="#222220"/>
  <path id="Path_260" data-name="Path 260" d="M38.2,62.8l-.606-.233.167-.628.185-.685a14.361,14.361,0,0,1-2.6,1.024c-.439.123-.756.18-.756.18V62.9a10.924,10.924,0,0,1-1.634.141h-.048a10.9,10.9,0,0,1-1.634-.141v-.439s-.321-.062-.76-.185a14.334,14.334,0,0,1-2.6-1.024l.18.685.171.628-.611.233-.659.25a17.731,17.731,0,0,0,2.825,1.169l-.233.633a8.751,8.751,0,0,0,3.326.576h.026a8.742,8.742,0,0,0,3.326-.576l-.228-.633a17.573,17.573,0,0,0,2.82-1.169Zm-10.482.294,1-.334-.294-.966a13.06,13.06,0,0,0,2,.8l-.483,1.318a12.112,12.112,0,0,1-2.223-.83m5.215,2.016a11.1,11.1,0,0,1-2.86-.391l.593-1.608a9.621,9.621,0,0,0,2.262.29h.048a9.665,9.665,0,0,0,2.262-.29l.593,1.608a11.084,11.084,0,0,1-2.878.409m3-1.191L35.47,62.6a13.044,13.044,0,0,0,2-.8l-.294.966,1,.334a12.054,12.054,0,0,1-2.223.83" transform="translate(-15.138 -34.096)" fill="#222220"/>
  <path id="Path_261" data-name="Path 261" d="M36.043,4.584a4.564,4.564,0,0,1,2.776.848,5.514,5.514,0,0,1,.716-1.841l-1,.114L38.02,2.594l-1.006.518-.971-.962-.971.962-1.006-.518-.518,1.111-1-.114a5.5,5.5,0,0,1,.716,1.841,4.573,4.573,0,0,1,2.777-.848M33.5,4.092l.277.031.119-.25.347-.747.646.334.25.127.2-.185.7-.707.7.707.2.2.25-.127.641-.334.351.747.119.25.277-.031.264-.031a6.244,6.244,0,0,0-.272.747,5.544,5.544,0,0,0-5.057,0,6.435,6.435,0,0,0-.272-.747Z" transform="translate(-18.25 -1.205)" fill="#222220"/>
  <path id="Path_262" data-name="Path 262" d="M59.291,22.158a2.423,2.423,0,0,0,2.157-1.719l.18-.582h-.6A4.281,4.281,0,0,1,57.8,18.2l-.119-.147A6.307,6.307,0,0,0,54.7,15.546a1.4,1.4,0,0,1,.176-.133,2.636,2.636,0,0,0,1.274-1.776,2.65,2.65,0,0,0-.527-1.9l-.439-.555-.277.662a1.776,1.776,0,0,1-1.472,1.1h-.29a2.418,2.418,0,0,0-.685-1.883,3.111,3.111,0,0,0-2.258-.95,2.965,2.965,0,0,0-.47.036l-.672.133.417.555c.325.444.619,1.212.272,1.625a1.89,1.89,0,0,1-.562.342c-.439.209-1.072.506-1.072,1.252a1.882,1.882,0,0,0,1.046,1.421,8.543,8.543,0,0,1,3.739,4.055,3.236,3.236,0,0,1-1.292,4.2l-.466.3.409.377a2.338,2.338,0,0,0,1.292.56h.4a4.067,4.067,0,0,0,1.2-.178,3.108,3.108,0,0,1-.343.489,2.929,2.929,0,0,1-2.381,1.03h-.391l-.031.4a1.878,1.878,0,0,0,.655,1.439,1.523,1.523,0,0,0,.365.24,3.478,3.478,0,0,0-1.032,2.434,3.383,3.383,0,0,1-.329,1.452l-.439.666H51.3a3.912,3.912,0,0,0,2.965-1.075,3.406,3.406,0,0,0,.773-1.332,2.091,2.091,0,0,0,.879.444,2.035,2.035,0,0,0,.47.053,3.043,3.043,0,0,0,.7-.084l.5-.133-.22-.471a3.387,3.387,0,0,1,0-2.332A7.75,7.75,0,0,0,57.7,26.5a2.722,2.722,0,0,0,1.278.3,2.112,2.112,0,0,0,1.806-.973l.242-.444-.439-.187a3.564,3.564,0,0,1-1.863-3.175,2.717,2.717,0,0,0,.439.053Zm1.169,3.517a1.665,1.665,0,0,1-1.415.755h0a1.989,1.989,0,0,1-1.665-.737,6.355,6.355,0,0,1-.36,2.221,3.813,3.813,0,0,0,0,2.665,2.535,2.535,0,0,1-.6.076,1.465,1.465,0,0,1-.369-.044,1.734,1.734,0,0,1-1.239-1.15s.092,3.082-3.462,3.082h-.026a3.535,3.535,0,0,0,.4-1.67c.154-2.278,1.683-2.6,1.683-2.6a2.7,2.7,0,0,1-1.173-.444,1.467,1.467,0,0,1-.514-1.093,3.344,3.344,0,0,0,2.693-1.177,3.484,3.484,0,0,0,.786-1.643,3.052,3.052,0,0,1-1.973.617h-.36a1.9,1.9,0,0,1-1.041-.444,3.672,3.672,0,0,0,1.463-4.712,9.213,9.213,0,0,0-3.928-4.268c-.54-.338-.865-.719-.865-1.048,0-.773,1.085-.795,1.533-1.332a1.836,1.836,0,0,0-.255-2.167,2.108,2.108,0,0,1,.387-.031,2.67,2.67,0,0,1,1.951.822,1.95,1.95,0,0,1,.518,1.941l.237.049a2.739,2.739,0,0,0,.439.044h.1a2.256,2.256,0,0,0,1.867-1.363,1.994,1.994,0,0,1-.646,3.038c-.347.226-.5.444-.439.666l.031.147.145.027c1.463.4,2.2,1.421,3.106,2.58A4.715,4.715,0,0,0,61.026,20.3h.026A2,2,0,0,1,59.3,21.71h-.062a1.691,1.691,0,0,1-.909-.253s-.233,3.211,2.135,4.206" transform="translate(-27.038 -5.668)" fill="#222220"/>
  <path id="Path_263" data-name="Path 263" d="M66.365,21.454a3.954,3.954,0,0,1,1.252,1.12,2.355,2.355,0,0,0,1.028.879,1.529,1.529,0,0,0,.5.079,1.8,1.8,0,0,0,1.595-.98l.255-.571-.619-.035a2.961,2.961,0,0,1-1.713-.98A1.757,1.757,0,0,0,67.38,20.4a2.012,2.012,0,0,0-1.059.321l-.571.4Zm1.015-.624a1.318,1.318,0,0,1,.975.439,3.392,3.392,0,0,0,1.99,1.107,1.379,1.379,0,0,1-1.2.725,1.1,1.1,0,0,1-.365-.062c-.712-.242-.962-1.318-2.2-1.968a1.546,1.546,0,0,1,.813-.246" transform="translate(-36.946 -11.361)" fill="#222220"/>
  <path id="Path_264" data-name="Path 264" d="M59.111,26.458h0A8.585,8.585,0,0,0,54.3,20.193c-.215-.119-.417-.215-.611-.308a3.378,3.378,0,0,0,2.75-.646s-1.357,1-4.134.092a28.456,28.456,0,0,1,3.629,2.346c3.409,3,.971,5.922.971,5.922a3.589,3.589,0,0,0,.918-3.769,7.029,7.029,0,0,1,.993,3.985,10.318,10.318,0,0,1-2.693,5.918,3.954,3.954,0,0,0-.782,1.731,5.351,5.351,0,0,1,1-1.709,9.853,9.853,0,0,0,2.807-5.909,4.232,4.232,0,0,0,1.722,2.2s-1.213-.729-1.757-3.576" transform="translate(-29.396 -10.654)" fill="#222220"/>
  <path id="Path_265" data-name="Path 265" d="M12.791,32.344a3.486,3.486,0,0,1-.329-1.452,3.478,3.478,0,0,0-1.037-2.434,1.5,1.5,0,0,0,.365-.24,1.874,1.874,0,0,0,.655-1.439l-.026-.4h-.4a2.929,2.929,0,0,1-2.377-1.03,3.251,3.251,0,0,1-.343-.489,4.049,4.049,0,0,0,1.2.178h.4a2.342,2.342,0,0,0,1.3-.56l.409-.377-.466-.3a3.231,3.231,0,0,1-1.292-4.2,8.553,8.553,0,0,1,3.756-4.05c.672-.444,1.041-.937,1.041-1.421,0-.746-.619-1.044-1.072-1.252a1.872,1.872,0,0,1-.562-.342c-.351-.413-.057-1.2.272-1.625l.439-.555-.677-.133a2.925,2.925,0,0,0-.47-.036,3.1,3.1,0,0,0-2.289.915,2.422,2.422,0,0,0-.707,1.887h-.264a1.791,1.791,0,0,1-1.472-1.1l-.277-.662-.439.555a2.686,2.686,0,0,0-.523,1.9,2.628,2.628,0,0,0,1.27,1.776,1.319,1.319,0,0,1,.176.133A6.234,6.234,0,0,0,6.074,18.1l-.119.151A4.281,4.281,0,0,1,2.722,19.91h-.6l.185.582A2.385,2.385,0,0,0,4.462,22.21h.079a2.778,2.778,0,0,0,.439-.053,3.569,3.569,0,0,1-1.867,3.175l-.439.187.242.444a2.112,2.112,0,0,0,1.806.973,2.726,2.726,0,0,0,1.274-.3,7.7,7.7,0,0,0,.338,1.51,3.387,3.387,0,0,1,0,2.331l-.22.471.5.133a3.043,3.043,0,0,0,.7.084,2.017,2.017,0,0,0,.47-.053,2.083,2.083,0,0,0,.879-.444A3.4,3.4,0,0,0,9.439,32,3.943,3.943,0,0,0,12.4,33.072h.782Zm-.378.249c-3.554,0-3.466-3.082-3.466-3.082a1.734,1.734,0,0,1-1.239,1.15,1.444,1.444,0,0,1-.369.044,2.518,2.518,0,0,1-.593-.075,3.827,3.827,0,0,0,0-2.665,6.368,6.368,0,0,1-.356-2.22,1.989,1.989,0,0,1-1.665.737H4.7a1.665,1.665,0,0,1-1.419-.759c2.368-.995,2.135-4.206,2.135-4.206a1.7,1.7,0,0,1-.909.253H4.462A2,2,0,0,1,2.7,20.358h.026a4.71,4.71,0,0,0,3.558-1.816c.9-1.159,1.643-2.18,3.106-2.58l.145-.027.031-.147c.04-.226-.114-.444-.439-.666a1.993,1.993,0,0,1-.646-3.038,2.24,2.24,0,0,0,1.867,1.363h.062a2.8,2.8,0,0,0,.439-.044l.237-.049a1.946,1.946,0,0,1,.518-1.941,2.67,2.67,0,0,1,1.951-.822,2.091,2.091,0,0,1,.387.031c-.439.591-.764,1.568-.25,2.167.439.52,1.529.542,1.529,1.332,0,.329-.3.711-.843,1.052a9.168,9.168,0,0,0-3.928,4.268,3.667,3.667,0,0,0,1.463,4.712,1.9,1.9,0,0,1-1.041.444h-.365a3.052,3.052,0,0,1-1.973-.617,3.506,3.506,0,0,0,.782,1.643,3.357,3.357,0,0,0,2.7,1.177,1.467,1.467,0,0,1-.514,1.092,2.706,2.706,0,0,1-1.173.444s1.533.315,1.7,2.6a3.552,3.552,0,0,0,.4,1.67Z" transform="translate(-1.189 -5.712)" fill="#222220"/>
  <path id="Path_266" data-name="Path 266" d="M5.175,23.528a1.533,1.533,0,0,0,.5-.079A2.35,2.35,0,0,0,6.7,22.57a3.954,3.954,0,0,1,1.248-1.12l.615-.329-.571-.4A2,2,0,0,0,6.937,20.4a1.757,1.757,0,0,0-1.278.571,2.965,2.965,0,0,1-1.709.98l-.619.031.25.571a1.8,1.8,0,0,0,1.59.975m.786-2.258a1.318,1.318,0,0,1,.975-.439,1.551,1.551,0,0,1,.808.246c-1.243.663-1.5,1.727-2.2,1.968a1.072,1.072,0,0,1-.36.062,1.375,1.375,0,0,1-1.213-.729,3.387,3.387,0,0,0,1.99-1.107" transform="translate(-1.867 -11.361)" fill="#222220"/>
  <path id="Path_267" data-name="Path 267" d="M11.266,27.856a6.981,6.981,0,0,1,.993-3.985,3.585,3.585,0,0,0,.918,3.769s-2.443-2.926.971-5.922a28.469,28.469,0,0,1,3.624-2.346c-2.776.9-4.134-.092-4.134-.092a3.374,3.374,0,0,0,2.746.646c-.193.092-.4.193-.611.308-2.342,1.274-4.459,3.37-4.806,6.269V26.48c-.545,2.847-1.757,3.576-1.757,3.576a4.2,4.2,0,0,0,1.718-2.2,9.785,9.785,0,0,0,2.812,5.909,5.4,5.4,0,0,1,1,1.709,3.954,3.954,0,0,0-.791-1.722,10.281,10.281,0,0,1-2.684-5.9" transform="translate(-5.164 -10.676)" fill="#222220"/>
  <path id="Path_268" data-name="Path 268" d="M38.67,25.45v.576a.707.707,0,0,1,.584-.193v.83a1.235,1.235,0,0,1-.158.584h.83a1.256,1.256,0,0,1-.158-.584v-.83a.707.707,0,0,1,.58.193V25.45Z" transform="translate(-21.682 -14.178)" fill="#222220"/>
  <path id="Path_269" data-name="Path 269" d="M37.311,16.855a1.318,1.318,0,0,0,.439.25l.105.048v-.545L36.88,16.2a.975.975,0,0,0,.439.655" transform="translate(-20.678 -9.026)" fill="#222220"/>
  <path id="Path_270" data-name="Path 270" d="M42.456,16.855A.975.975,0,0,0,42.9,16.2l-.975.409v.54l.1-.048a1.318,1.318,0,0,0,.439-.25" transform="translate(-23.504 -9.026)" fill="#222220"/>
  <path id="Path_271" data-name="Path 271" d="M35.182,10.7c0-.83-1.384-1.576-2.908-1.576h0c-1.524,0-2.908.746-2.908,1.576l.031.2.611,3.551-.611.36-1.595.915h0s-.356.186-.523.3c-.6.444-.729,1.039-.382,1.3a1.2,1.2,0,0,1,1.217-1.03,1.582,1.582,0,0,1,1.261.693,3.29,3.29,0,0,1,.237.337c.092.151.185.284.277.413H25.82a4.473,4.473,0,0,1,.584,1.953v9.132a3.206,3.206,0,0,0,3.515,3.263c1.406,0,1.595-.067,2.368.715.773-.781.962-.715,2.368-.715a3.217,3.217,0,0,0,3.515-3.263V19.694a4.473,4.473,0,0,1,.584-1.953H34.642c.092-.129.185-.262.277-.413a3.841,3.841,0,0,1,.237-.337,1.586,1.586,0,0,1,1.265-.693,1.2,1.2,0,0,1,1.217,1.03c.351-.253.224-.888-.382-1.3a5.816,5.816,0,0,0-.518-.3h0l-1.582-.941-.611-.36.611-3.551Zm-5.228.408,2.144.732v3.4l-1.577-.843Zm.439,7.227a2.863,2.863,0,0,0,1.024.693,1.345,1.345,0,0,0,.057.888,1.292,1.292,0,0,0,.7.648,1.329,1.329,0,0,0,.879,1.105c-.264.271-.523.524-.628.626l-2.456-.04a.441.441,0,0,1-.193-.182v-.031l.4.067H30.2a.159.159,0,0,0,.158-.133.164.164,0,0,0-.132-.186l-.492-.08.545-1.909-.518-1.1-.83.888-.053,1.984-.558-.089a.157.157,0,0,0-.12.027.16.16,0,0,0-.064.106.164.164,0,0,0,.132.186l.233.036a.924.924,0,0,0-.145.093l-.048.036v.058a1.312,1.312,0,0,0,.505,1.332v.071a.324.324,0,0,0,.264.368h.053a.313.313,0,0,0,.3-.249,2.651,2.651,0,0,0,.312,0h.066l3.22.59.053-.036c.255-.182,1.234-.888,1.555-1.141a1.37,1.37,0,0,0,.308.2,1.342,1.342,0,0,0,.3,1.332h-8.25v-4.8a4.031,4.031,0,0,0-.294-1.363Zm3.98,4.382c-.325.244-1.164.861-1.467,1.074l-2.921-.515v-.08a2.6,2.6,0,0,0,.079-.608l2.46.04.048-.049c.04-.04.817-.8,1.213-1.239a1.49,1.49,0,0,0,.369.333,1.451,1.451,0,0,0,.206,1.057M29.48,22.2a.756.756,0,0,0,.281.3,3.484,3.484,0,0,1-.053.537.177.177,0,0,1-.031.12v.062a1.871,1.871,0,0,1-.593-.093.966.966,0,0,1-.492-.981,1.157,1.157,0,0,1,.527-.209.369.369,0,0,1,.36.249m-.3-.59.048-1.878.439-.444.268.564-.523,1.829Zm5.18,9.891h-.439l.329-1.088c.053-.151-.22-.346-.334-.519a9.158,9.158,0,0,0,.83.444c0,.036-.4,1.163-.4,1.163m1.094-1.247-.228,1.2c-.145,0-.3.031-.439.04l.242-1.154c.07-.342-.839-.444-1.287-1.123a1.4,1.4,0,0,1-1.05.324,5.3,5.3,0,0,1-.988-.107,1.052,1.052,0,0,0-.171,0,.359.359,0,0,0-.338.182l-.066.111-1.252-.306-.3.524a.183.183,0,0,0,.022.231l.083.093a1.775,1.775,0,0,1-.316.444l-.185-.231a.681.681,0,0,1,.031-.746l.492-.839,1.05.16-.163-.377c-.22-.5.114-1.132.149-1.5,0,.111-.114.133-.228.133h-.3a.126.126,0,0,0-.07,0l-.286.173-.224-.209a.166.166,0,0,1,.031-.2l.518-.59-.615-.724.879.444.264-.32c.07.071.04.257.04.257a1.414,1.414,0,0,1,1.063,1.412v.129a.629.629,0,0,0,.387.28l1.191.12h0a4.127,4.127,0,0,1,.725-.155,1.094,1.094,0,0,1,.6.182.528.528,0,0,1,.286-.1h.04c.532,0,.756.488,1.041.888.215.306.505.768.505.768a.438.438,0,0,1-.369.2.761.761,0,0,1-.154,0c-.571-.107-.655-1.3-.98-1.39H35a.176.176,0,0,0-.149.093c.149.4.062.568.224.888a2.213,2.213,0,0,0,.439.511s-.022.178-.048.306m-6.41-1.163.053.138c-.035.12-.439.293-.439.293l-.088-.2a.661.661,0,0,1,.211-.781l.663-.408.707.151a.639.639,0,0,0,.123.4l-.742-.142-.439.311a.192.192,0,0,0-.04.24m6.5,2.268.2-1.074a1.57,1.57,0,0,1,.031-.2.9.9,0,0,0,.185.058,1.122,1.122,0,0,0,.211,0,.77.77,0,0,0,.615-.306l.158-.186-.132-.182s-.294-.471-.514-.781L36.2,28.52a1.438,1.438,0,0,0-1.177-.843h-.057a.892.892,0,0,0-.264.053,1.407,1.407,0,0,0-.606-.142,1.867,1.867,0,0,0-.619.12l-.105.031-1.16-.115a.313.313,0,0,1-.119-.1h0l.25-.1a2.023,2.023,0,0,0-1.318-1.54.481.481,0,0,0-.132-.24l-.25-.24-.22.266-.11.133-1.625-.675,1.059,1.332-.417.639a.233.233,0,0,0,0,.329l.439.3.439-.169h.044a2.9,2.9,0,0,1-.07.413l-.764-.133-.817.444a.983.983,0,0,0-.312,1.207l.092.2.127.284.286-.12h0a.9.9,0,0,0,.123.852l.171.222.228.293.255-.275a1.83,1.83,0,0,0,.391-.582l.053-.178-.123-.138V30.02l.141-.231,1.015.24.228.053.123-.2.066-.111c0-.022,0-.027.062-.027h.11a5.654,5.654,0,0,0,1.05.111,2.018,2.018,0,0,0,.7-.084l.562.648-.334,1.039v.062a1.749,1.749,0,0,0-1.318.568c-.54-.542-.923-.6-2.368-.6a2.623,2.623,0,0,1-2.908-2.664v-4H37.563v4a2.5,2.5,0,0,1-2,2.557m2.284-13.047a3.951,3.951,0,0,0-.294,1.363v2.992a.885.885,0,0,1-.694-.808v-.138h-.132a.936.936,0,0,1-.6-.289,1.273,1.273,0,0,1-.3-.808.9.9,0,0,0,.048,1,1.056,1.056,0,0,0,.694.4,1.166,1.166,0,0,0,1,.981v1.465H35.722a1.035,1.035,0,0,1-.47-1.332l.07-.16-.163-.062a1.05,1.05,0,0,1-.65-1.3l.035-.133-.123-.058a1.336,1.336,0,0,1-.641-1.332.823.823,0,0,0-.149.937c-.088.1-.2.222-.329.355a1.031,1.031,0,0,1-.813-.977V20.32l-.1-.04a.926.926,0,0,1-.659-1.163,1.871,1.871,0,0,0,.264.04,2.577,2.577,0,0,0,.268,0h0a2.5,2.5,0,0,0,1.863-.843ZM35,15.3l.72.444h0l.18.107a2.122,2.122,0,0,0-.98.59l-.031.027c-.062.067-.119.133-.176.2l-.035.044a2.574,2.574,0,0,0-.158.226l-.026.04c-.062.089-.119.186-.176.284A2.592,2.592,0,0,1,32.26,18.7a2.592,2.592,0,0,1-2.06-1.429c-.057-.1-.114-.191-.171-.284l-.035-.049-.141-.231-.04-.049q-.086-.107-.171-.2l-.031-.031a2.122,2.122,0,0,0-.98-.59l.185-.107h0l.725-.444.742-.444,1.981,1.088h0l1.981-1.052Zm-.975-.888-1.577.839V11.841l2.139-.732Zm-1.757-2.934-2.346-.95c.2-.479,1.12-.888,2.346-.888s2.148.408,2.346.888Z" transform="translate(-14.477 -5.113)" fill="#222220"/>
</svg>
