<svg xmlns="http://www.w3.org/2000/svg" width="13" height="21" viewBox="0 0 13 21">
  <g id="Group_37" data-name="Group 37" transform="translate(1)">
    <g id="Ellipse_78" data-name="Ellipse 78" transform="translate(1)" fill="none" stroke="#fff" stroke-width="1">
      <circle cx="4.5" cy="4.5" r="4.5" stroke="none"/>
      <circle cx="4.5" cy="4.5" r="4" fill="none"/>
    </g>
    <g id="Rectangle_97" data-name="Rectangle 97" transform="translate(-1 11)" fill="none" stroke="#fff" stroke-width="1">
      <path d="M5,0H8a5,5,0,0,1,5,5v5a0,0,0,0,1,0,0H0a0,0,0,0,1,0,0V5A5,5,0,0,1,5,0Z" stroke="none"/>
      <path d="M5,.5H8A4.5,4.5,0,0,1,12.5,5V9a.5.5,0,0,1-.5.5H1A.5.5,0,0,1,.5,9V5A4.5,4.5,0,0,1,5,.5Z" fill="none"/>
    </g>
  </g>
</svg>