<svg xmlns="http://www.w3.org/2000/svg" width="21" height="21" viewBox="0 0 21 21">
  <g id="Group_242" data-name="Group 242" transform="translate(-382.5 -734)">
    <g id="Path_290" data-name="Path 290" transform="translate(384.161 736.15)" fill="none">
      <path d="M1.789.209H15.845a1.714,1.714,0,0,1,1.832,1.713V16.937a1.864,1.864,0,0,1-1.811,1.913H1.811A1.864,1.864,0,0,1,0,16.937V1.922A1.678,1.678,0,0,1,1.789.209Z" stroke="none"/>
      <path d="M 1.789015769958496 1.209110260009766 C 1.551774978637695 1.209110260009766 0.9999961853027344 1.278570175170898 0.9999961853027344 1.921930313110352 L 0.9999961853027344 16.93748092651367 C 0.9999961853027344 17.44081115722656 1.363655090332031 17.85029029846191 1.81065559387207 17.85029029846191 L 15.86709594726562 17.85029029846191 C 16.31409645080566 17.85029029846191 16.67775535583496 17.44081115722656 16.67775535583496 16.93748092651367 L 16.67775535583496 1.921930313110352 C 16.67775535583496 1.243480682373047 15.98443603515625 1.209110260009766 15.84544563293457 1.209110260009766 L 1.789015769958496 1.209110260009766 M 1.789015769958496 0.2091102600097656 L 15.84544563293457 0.2091102600097656 C 16.84544563293457 0.2091102600097656 17.67775535583496 0.8655109405517578 17.67775535583496 1.921930313110352 L 17.67775535583496 16.93748092651367 C 17.67775535583496 17.99390029907227 16.86709594726562 18.85029029846191 15.86709594726562 18.85029029846191 L 1.81065559387207 18.85029029846191 C 0.8106555938720703 18.85029029846191 -3.814697265625e-06 17.99390029907227 -3.814697265625e-06 16.93748092651367 L -3.814697265625e-06 1.921930313110352 C -3.814697265625e-06 0.8655109405517578 0.7890167236328125 0.2091102600097656 1.789015769958496 0.2091102600097656 Z" stroke="none" fill="#fff"/>
    </g>
    <line id="Line_56" data-name="Line 56" x2="21" transform="translate(382.5 736.706)" fill="none" stroke="#fff" stroke-width="1"/>
    <g id="Path_289" data-name="Path 289" transform="translate(389.678 734)" fill="none">
      <path d="M0,0H6.644V3.141H0Z" stroke="none"/>
      <path d="M 0.9999990463256836 1.000002384185791 L 0.9999990463256836 2.140622615814209 L 5.644498825073242 2.140622615814209 L 5.644498825073242 1.000002384185791 L 0.9999990463256836 1.000002384185791 M -9.5367431640625e-07 2.384185791015625e-06 L 6.644498825073242 2.384185791015625e-06 L 6.644498825073242 3.140622615814209 L -9.5367431640625e-07 3.140622615814209 L -9.5367431640625e-07 2.384185791015625e-06 Z" stroke="none" fill="#fff"/>
    </g>
    <line id="Line_57" data-name="Line 57" y2="8.608" transform="translate(390.237 741.524)" fill="none" stroke="#fff" stroke-width="1"/>
    <line id="Line_58" data-name="Line 58" y2="8.608" transform="translate(395.739 741.524)" fill="none" stroke="#fff" stroke-width="1"/>
  </g>
</svg>
